<?xml version="1.0" encoding="UTF-8" standalone="no"?>
<svg
   xmlns:dc="http://purl.org/dc/elements/1.1/"
   xmlns:cc="http://creativecommons.org/ns#"
   xmlns:rdf="http://www.w3.org/1999/02/22-rdf-syntax-ns#"
   xmlns:svg="http://www.w3.org/2000/svg"
   xmlns="http://www.w3.org/2000/svg"
   xmlns:sodipodi="http://sodipodi.sourceforge.net/DTD/sodipodi-0.dtd"
   xmlns:inkscape="http://www.inkscape.org/namespaces/inkscape"
   version="1.1"
   width="4.01828cm"
   height="3.6195cm"
   viewBox="0 0 15820 14250 "
   id="svg1011"
   sodipodi:docname="BlinkIR-brd.svg"
   inkscape:version="0.92.2 (5c3e80d, 2017-08-06)">
  <metadata
     id="metadata1017">
    <rdf:RDF>
      <cc:Work
         rdf:about="">
        <dc:format>image/svg+xml</dc:format>
        <dc:type
           rdf:resource="http://purl.org/dc/dcmitype/StillImage" />
      </cc:Work>
    </rdf:RDF>
  </metadata>
  <defs
     id="defs1015">
    <pattern
       inkscape:stockid="Stripes 1:1"
       id="Strips1_1"
       patternTransform="translate(0,0) scale(10,10)"
       height="1"
       width="2"
       patternUnits="userSpaceOnUse"
       inkscape:collect="always">
      <rect
         id="rect1736"
         height="2"
         width="1"
         y="-0.5"
         x="0"
         style="fill:black;stroke:none" />
    </pattern>
  </defs>
  <sodipodi:namedview
     pagecolor="#ffffff"
     bordercolor="#666666"
     borderopacity="1"
     objecttolerance="10"
     gridtolerance="10"
     guidetolerance="10"
     inkscape:pageopacity="0"
     inkscape:pageshadow="2"
     inkscape:window-width="2560"
     inkscape:window-height="1377"
     id="namedview1013"
     showgrid="false"
     inkscape:zoom="8.8450294"
     inkscape:cx="75.936001"
     inkscape:cy="68.399999"
     inkscape:window-x="-8"
     inkscape:window-y="-8"
     inkscape:window-maximized="1"
     inkscape:current-layer="svg1011" />
  <title
     id="title815">SVG Picture created as BlinkIR-brd.svg date 2018/09/04 15:55:32 </title>
  <desc
     id="desc817">Picture generated by PCBNEW </desc>
  <g
     style="fill:#000000; fill-opacity:1;stroke:#000000; stroke-opacity:1; stroke-linecap:round; stroke-linejoin:round; "
     transform="translate(0 0) scale(1 1)"
     id="g819" />
  <g
     style="fill:#000000; fill-opacity:0.0;  stroke:#000000; stroke-width:-0.000393701; stroke-opacity:1;  stroke-linecap:round; stroke-linejoin:round;"
     id="g821" />
  <g
     style="fill:#008400; fill-opacity:0.0;  stroke:#008400; stroke-width:-0.000393701; stroke-opacity:1;  stroke-linecap:round; stroke-linejoin:round;"
     id="g823" />
  <g
     style="fill:#008400; fill-opacity:1.0;  stroke:#008400; stroke-width:0; stroke-opacity:1;  stroke-linecap:round; stroke-linejoin:round;"
     id="g827">
    <circle
       cx="5881.89"
       cy="12055.1"
       r="374.016"
       id="circle825" />
  </g>
  <g
     style="fill:#008400; fill-opacity:1.0;  stroke:#008400; stroke-width:39.3701; stroke-opacity:1;  stroke-linecap:round; stroke-linejoin:round;"
     id="g829" />
  <g
     style="fill:#008400; fill-opacity:1.0;  stroke:#008400; stroke-width:0; stroke-opacity:1;  stroke-linecap:round; stroke-linejoin:round;"
     id="g833">
    <circle
       cx="6881.89"
       cy="12055.1"
       r="374.016"
       id="circle831" />
  </g>
  <g
     style="fill:#008400; fill-opacity:1.0;  stroke:#008400; stroke-width:39.3701; stroke-opacity:1;  stroke-linecap:round; stroke-linejoin:round;"
     id="g835" />
  <g
     style="fill:#008400; fill-opacity:1.0;  stroke:#008400; stroke-width:0; stroke-opacity:1;  stroke-linecap:round; stroke-linejoin:round;"
     id="g839">
    <circle
       cx="8881.89"
       cy="12055.1"
       r="374.016"
       id="circle837" />
  </g>
  <g
     style="fill:#008400; fill-opacity:1.0;  stroke:#008400; stroke-width:39.3701; stroke-opacity:1;  stroke-linecap:round; stroke-linejoin:round;"
     id="g841" />
  <g
     style="fill:#008400; fill-opacity:1.0;  stroke:#008400; stroke-width:0; stroke-opacity:1;  stroke-linecap:round; stroke-linejoin:round;"
     id="g845">
    <circle
       cx="7881.89"
       cy="12055.1"
       r="374.016"
       id="circle843" />
  </g>
  <g
     style="fill:#008400; fill-opacity:1.0;  stroke:#008400; stroke-width:39.3701; stroke-opacity:1;  stroke-linecap:round; stroke-linejoin:round;"
     id="g847" />
  <g
     style="fill:#008400; fill-opacity:1.0;  stroke:#008400; stroke-width:0; stroke-opacity:1;  stroke-linecap:round; stroke-linejoin:round;"
     id="g851">
    <circle
       cx="9881.89"
       cy="12055.1"
       r="374.016"
       id="circle849" />
  </g>
  <g
     style="fill:#008400; fill-opacity:1.0;  stroke:#008400; stroke-width:39.3701; stroke-opacity:1;  stroke-linecap:round; stroke-linejoin:round;"
     id="g853" />
  <g
     style="fill:#848400; fill-opacity:1.0;  stroke:#848400; stroke-width:39.3701; stroke-opacity:1;  stroke-linecap:round; stroke-linejoin:round;"
     id="g855" />
  <g
     style="fill:#848400; fill-opacity:1.0;  stroke:#848400; stroke-width:0; stroke-opacity:1;  stroke-linecap:round; stroke-linejoin:round;"
     id="g859">
    <circle
       cx="7952.76"
       cy="2834.65"
       r="1574.8"
       id="circle857" />
  </g>
  <g
     style="fill:#848400; fill-opacity:1.0;  stroke:#848400; stroke-width:39.3701; stroke-opacity:1;  stroke-linecap:round; stroke-linejoin:round;"
     id="g861" />
  <g
     style="fill:#848400; fill-opacity:1.0;  stroke:#848400; stroke-width:0; stroke-opacity:1;  stroke-linecap:round; stroke-linejoin:round;"
     id="g865">
    <circle
       cx="2440.94"
       cy="11889.8"
       r="1574.8"
       id="circle863" />
  </g>
  <g
     style="fill:#848400; fill-opacity:1.0;  stroke:#848400; stroke-width:39.3701; stroke-opacity:1;  stroke-linecap:round; stroke-linejoin:round;"
     id="g867" />
  <g
     style="fill:#848400; fill-opacity:1.0;  stroke:#848400; stroke-width:0; stroke-opacity:1;  stroke-linecap:round; stroke-linejoin:round;"
     id="g871">
    <circle
       cx="13464.6"
       cy="11889.8"
       r="1574.8"
       id="circle869" />
  </g>
  <g
     style="fill:#848400; fill-opacity:1.0;  stroke:#848400; stroke-width:39.3701; stroke-opacity:1;  stroke-linecap:round; stroke-linejoin:round;"
     id="g873" />
  <g
     style="fill:#848400; fill-opacity:1.0;  stroke:#848400; stroke-width:0; stroke-opacity:1;  stroke-linecap:round; stroke-linejoin:round;"
     id="g877">
    <circle
       cx="7346.46"
       cy="11102.4"
       r="433.071"
       id="circle875" />
  </g>
  <g
     style="fill:#848400; fill-opacity:1.0;  stroke:#848400; stroke-width:39.3701; stroke-opacity:1;  stroke-linecap:round; stroke-linejoin:round;"
     id="g879" />
  <g
     style="fill:#848400; fill-opacity:1.0;  stroke:#848400; stroke-width:0; stroke-opacity:1;  stroke-linecap:round; stroke-linejoin:round;"
     id="g887">
    <polyline
       style="fill-rule:evenodd;"
       points="8779,10669 8779,11535 7913,11535 7913,10669 8779,10669 "
       id="polyline881" />
    <polyline
       style="fill-rule:evenodd;"
       points="5749,9331 4998,8898 5432,8148 6182,8581 5749,9331 "
       id="polyline883" />
    <circle
       cx="6090.55"
       cy="7874.13"
       r="433.071"
       id="circle885" />
  </g>
  <g
     style="fill:#848400; fill-opacity:1.0;  stroke:#848400; stroke-width:39.3701; stroke-opacity:1;  stroke-linecap:round; stroke-linejoin:round;"
     id="g889" />
  <g
     style="fill:#848400; fill-opacity:1.0;  stroke:#848400; stroke-width:0; stroke-opacity:1;  stroke-linecap:round; stroke-linejoin:round;"
     id="g893">
    <circle
       cx="10315"
       cy="8740.16"
       r="433.071"
       id="circle891" />
  </g>
  <g
     style="fill:#848400; fill-opacity:1.0;  stroke:#848400; stroke-width:39.3701; stroke-opacity:1;  stroke-linecap:round; stroke-linejoin:round;"
     id="g895" />
  <g
     style="fill:#848400; fill-opacity:1.0;  stroke:#848400; stroke-width:0; stroke-opacity:1;  stroke-linecap:round; stroke-linejoin:round;"
     id="g899">
    <polyline
       style="fill-rule:evenodd;"
       points="9223,7715 9973,7282 10406,8032 9656,8465 9223,7715 "
       id="polyline897" />
  </g>
  <g
     style="fill:#000000; fill-opacity:1.0;  stroke:#000000; stroke-width:0; stroke-opacity:1;  stroke-linecap:round; stroke-linejoin:round;"
     id="g901" />
  <g
     style="fill:#840000; fill-opacity:1.0;  stroke:#840000; stroke-width:0; stroke-opacity:1;  stroke-linecap:round; stroke-linejoin:round;"
     id="g947">
    <polyline
       style="fill-rule:evenodd;"
       points="7834,6850 7834,7480 7204,7480 7204,6850 7834,6850 "
       id="polyline903" />
    <polyline
       style="fill-rule:evenodd;"
       points="8700,6850 8700,7480 8070,7480 8070,6850 8700,6850 "
       id="polyline905" />
    <polyline
       style="fill-rule:evenodd;"
       points="8070,8208 8070,7696 8425,7696 8425,8208 8070,8208 "
       id="polyline907" />
    <polyline
       style="fill-rule:evenodd;"
       points="7480,8208 7480,7696 7834,7696 7834,8208 7480,8208 "
       id="polyline909" />
    <polyline
       style="fill-rule:evenodd;"
       points="4940,11614 5452,11614 5452,11968 4940,11968 4940,11614 "
       id="polyline911" />
    <polyline
       style="fill-rule:evenodd;"
       points="4940,11023 5452,11023 5452,11377 4940,11377 4940,11023 "
       id="polyline913" />
    <polyline
       style="fill-rule:evenodd;"
       points="10964,11968 10452,11968 10452,11614 10964,11614 10964,11968 "
       id="polyline915" />
    <polyline
       style="fill-rule:evenodd;"
       points="10964,11377 10452,11377 10452,11023 10964,11023 10964,11377 "
       id="polyline917" />
    <polyline
       style="fill-rule:evenodd;"
       points="7480,5846 7480,5334 7834,5334 7834,5846 7480,5846 "
       id="polyline919" />
    <polyline
       style="fill-rule:evenodd;"
       points="8070,5846 8070,5334 8425,5334 8425,5846 8070,5846 "
       id="polyline921" />
    <polyline
       style="fill-rule:evenodd;"
       points="7767,8927 7767,9340 7192,9340 7192,8927 7767,8927 "
       id="polyline923" />
    <polyline
       style="fill-rule:evenodd;"
       points="7767,9301 7767,9714 7192,9714 7192,9301 7767,9301 "
       id="polyline925" />
    <polyline
       style="fill-rule:evenodd;"
       points="7767,8553 7767,8966 7192,8966 7192,8553 7767,8553 "
       id="polyline927" />
    <polyline
       style="fill-rule:evenodd;"
       points="8633,8553 8633,8966 8059,8966 8059,8553 8633,8553 "
       id="polyline929" />
    <polyline
       style="fill-rule:evenodd;"
       points="8633,8927 8633,9340 8059,9340 8059,8927 8633,8927 "
       id="polyline931" />
    <polyline
       style="fill-rule:evenodd;"
       points="8633,9301 8633,9714 8059,9714 8059,9301 8633,9301 "
       id="polyline933" />
    <polyline
       style="fill-rule:evenodd;"
       points="10711,8193 11257,7878 11571,8424 11026,8739 10711,8193 "
       id="polyline935" />
    <polyline
       style="fill-rule:evenodd;"
       points="10278,7443 10823,7128 11138,7674 10593,7989 10278,7443 "
       id="polyline937" />
    <polyline
       style="fill-rule:evenodd;"
       points="8700,11574 8700,12204 8070,12204 8070,11574 8700,11574 "
       id="polyline939" />
    <polyline
       style="fill-rule:evenodd;"
       points="7834,11574 7834,12204 7204,12204 7204,11574 7834,11574 "
       id="polyline941" />
    <polyline
       style="fill-rule:evenodd;"
       points="4687,7916 5233,8231 4918,8776 4372,8461 4687,7916 "
       id="polyline943" />
    <polyline
       style="fill-rule:evenodd;"
       points="5120,7166 5666,7481 5351,8026 4805,7711 5120,7166 "
       id="polyline945" />
  </g>
  <g
     style="fill:#848400; fill-opacity:1.0;  stroke:#848400; stroke-width:0; stroke-opacity:1;  stroke-linecap:round; stroke-linejoin:round;"
     id="g951">
    <circle
       cx="7952.76"
       cy="2834.65"
       r="1574.8"
       id="circle949" />
  </g>
  <g
     style="fill:#848400; fill-opacity:1.0;  stroke:#848400; stroke-width:39.3701; stroke-opacity:1;  stroke-linecap:round; stroke-linejoin:round;"
     id="g953" />
  <g
     style="fill:#848400; fill-opacity:1.0;  stroke:#848400; stroke-width:0; stroke-opacity:1;  stroke-linecap:round; stroke-linejoin:round;"
     id="g957">
    <circle
       cx="2440.94"
       cy="11889.8"
       r="1574.8"
       id="circle955" />
  </g>
  <g
     style="fill:#848400; fill-opacity:1.0;  stroke:#848400; stroke-width:39.3701; stroke-opacity:1;  stroke-linecap:round; stroke-linejoin:round;"
     id="g959" />
  <g
     style="fill:#848400; fill-opacity:1.0;  stroke:#848400; stroke-width:0; stroke-opacity:1;  stroke-linecap:round; stroke-linejoin:round;"
     id="g963">
    <circle
       cx="13464.6"
       cy="11889.8"
       r="1574.8"
       id="circle961" />
  </g>
  <g
     style="fill:#848400; fill-opacity:1.0;  stroke:#848400; stroke-width:39.3701; stroke-opacity:1;  stroke-linecap:round; stroke-linejoin:round;"
     id="g965" />
  <g
     style="fill:#848400; fill-opacity:1.0;  stroke:#848400; stroke-width:0; stroke-opacity:1;  stroke-linecap:round; stroke-linejoin:round;"
     id="g969">
    <circle
       cx="7346.46"
       cy="11102.4"
       r="433.071"
       id="circle967" />
  </g>
  <g
     style="fill:#848400; fill-opacity:1.0;  stroke:#848400; stroke-width:39.3701; stroke-opacity:1;  stroke-linecap:round; stroke-linejoin:round;"
     id="g971" />
  <g
     style="fill:#848400; fill-opacity:1.0;  stroke:#848400; stroke-width:0; stroke-opacity:1;  stroke-linecap:round; stroke-linejoin:round;"
     id="g979">
    <polyline
       style="fill-rule:evenodd;"
       points="8779,10669 8779,11535 7913,11535 7913,10669 8779,10669 "
       id="polyline973" />
    <polyline
       style="fill-rule:evenodd;"
       points="5749,9331 4998,8898 5432,8148 6182,8581 5749,9331 "
       id="polyline975" />
    <circle
       cx="6090.55"
       cy="7874.13"
       r="433.071"
       id="circle977" />
  </g>
  <g
     style="fill:#848400; fill-opacity:1.0;  stroke:#848400; stroke-width:39.3701; stroke-opacity:1;  stroke-linecap:round; stroke-linejoin:round;"
     id="g981" />
  <g
     style="fill:#848400; fill-opacity:1.0;  stroke:#848400; stroke-width:0; stroke-opacity:1;  stroke-linecap:round; stroke-linejoin:round;"
     id="g985">
    <circle
       cx="10315"
       cy="8740.16"
       r="433.071"
       id="circle983" />
  </g>
  <g
     style="fill:#848400; fill-opacity:1.0;  stroke:#848400; stroke-width:39.3701; stroke-opacity:1;  stroke-linecap:round; stroke-linejoin:round;"
     id="g987" />
  <g
     style="fill:#848400; fill-opacity:1.0;  stroke:#848400; stroke-width:0; stroke-opacity:1;  stroke-linecap:round; stroke-linejoin:round;"
     id="g991">
    <polyline
       style="fill-rule:evenodd;"
       points="9223,7715 9973,7282 10406,8032 9656,8465 9223,7715 "
       id="polyline989" />
  </g>
  <g
     style="fill:#000000; fill-opacity:1.0;  stroke:#000000; stroke-width:0; stroke-opacity:1;  stroke-linecap:round; stroke-linejoin:round;"
     id="g993" />
  <g
     style="fill:#C2C200; fill-opacity:1.0;  stroke:#C2C200; stroke-width:0; stroke-opacity:1;  stroke-linecap:round; stroke-linejoin:round;"
     id="g995" />
  <g
     style="fill:#C2C200; fill-opacity:0.0;  stroke:#C2C200; stroke-width:59.0551; stroke-opacity:1;  stroke-linecap:round; stroke-linejoin:round;"
     id="g1009">
    <path
       id="path1007"
       d="m 10137.072,3269.1338 c 85.933,-432.016 41.828,-879.8087 -126.738,-1286.7464 C 9841.7684,1575.449 9556.3138,1227.6456 9190.0673,982.94812 8823.8221,738.25148 8393.2329,607.64897 7952.755,607.64897 c -440.4779,0 -871.0671,130.60251 -1237.3123,375.29915 -366.2465,244.69748 -651.7011,592.50088 -820.2671,999.43928 -168.5657,406.9377 -212.6706,854.7304 -126.7373,1286.7464 85.9334,432.016 298.0449,828.8492 609.0367,1140.0912 L 3228,9921 v 0 c -389.3317,-155.7297 -815.7494,-192.2524 -1225.985,-105.4372 -410.2355,86.8151 -785.5114,293.3282 -1078.36728,593.4232 -292.85648,300.095 -490.13775,680.291 -566.90599,1092.514 -76.76799,412.223 -29.57622,837.961 135.59972,1223.377 165.17593,385.416 440.91971,713.205 792.36665,941.91 351.4481,228.705 762.8172,348.054 1182.0974,342.952 419.2795,-5.102 827.6359,-134.426 1173.4255,-371.617 345.7898,-237.191 613.48,-571.594 768.994,-961.022 l 7086.825,0 c 155.789,389.428 423.479,723.831 769.269,961.022 345.79,237.191 754.146,366.515 1173.425,371.617 419.281,5.102 830.65,-114.247 1182.098,-342.952 351.447,-228.705 627.191,-556.494 792.367,-941.91 165.175,-385.416 212.367,-811.154 135.599,-1223.377 -76.768,-412.223 -274.049,-792.419 -566.906,-1092.514 -292.856,-300.095 -668.131,-506.6081 -1078.367,-593.4232 -410.236,-86.8152 -837.003,-50.0325 -1226.435,105.5672 L 9527.28,4409.225 c 311.7468,-311.242 523.858,-708.0752 609.792,-1140.0912 z"
       inkscape:connector-curvature="0"
       sodipodi:nodetypes="ssssssscccsssssssccsssssssccs"
       style="fill:url(#Strips1_1);fill-opacity:1.0" />
  </g>
</svg>
