G04 #@! TF.GenerationSoftware,KiCad,Pcbnew,(5.0.0)*
G04 #@! TF.CreationDate,2018-09-04T17:15:42+01:00*
G04 #@! TF.ProjectId,BlinkIR,426C696E6B49522E6B696361645F7063,rev?*
G04 #@! TF.SameCoordinates,Original*
G04 #@! TF.FileFunction,Soldermask,Top*
G04 #@! TF.FilePolarity,Negative*
%FSLAX46Y46*%
G04 Gerber Fmt 4.6, Leading zero omitted, Abs format (unit mm)*
G04 Created by KiCad (PCBNEW (5.0.0)) date 09/04/18 17:15:42*
%MOMM*%
%LPD*%
G01*
G04 APERTURE LIST*
%ADD10R,1.600000X1.600000*%
%ADD11R,0.900000X1.300000*%
%ADD12R,1.300000X0.900000*%
%ADD13R,1.460000X1.050000*%
%ADD14C,1.600000*%
%ADD15C,0.100000*%
%ADD16C,8.000000*%
%ADD17C,2.200000*%
%ADD18R,2.200000X2.200000*%
G04 APERTURE END LIST*
D10*
G04 #@! TO.C,D1*
X182900000Y-62000000D03*
X185100000Y-62000000D03*
G04 #@! TD*
D11*
G04 #@! TO.C,R1*
X184750000Y-64000000D03*
X183250000Y-64000000D03*
G04 #@! TD*
D12*
G04 #@! TO.C,R2*
X177000000Y-73750000D03*
X177000000Y-72250000D03*
G04 #@! TD*
G04 #@! TO.C,R3*
X191000000Y-73750000D03*
X191000000Y-72250000D03*
G04 #@! TD*
D11*
G04 #@! TO.C,R4*
X183250000Y-58000000D03*
X184750000Y-58000000D03*
G04 #@! TD*
D13*
G04 #@! TO.C,U1*
X182800000Y-67000000D03*
X182800000Y-67950000D03*
X182800000Y-66050000D03*
X185000000Y-66050000D03*
X185000000Y-67000000D03*
X185000000Y-67950000D03*
G04 #@! TD*
D14*
G04 #@! TO.C,D2*
X192100000Y-64905256D03*
D15*
G36*
X191007180Y-64612436D02*
X192392820Y-63812436D01*
X193192820Y-65198076D01*
X191807180Y-65998076D01*
X191007180Y-64612436D01*
X191007180Y-64612436D01*
G37*
D14*
X191000000Y-63000000D03*
D15*
G36*
X189907180Y-62707180D02*
X191292820Y-61907180D01*
X192092820Y-63292820D01*
X190707180Y-64092820D01*
X189907180Y-62707180D01*
X189907180Y-62707180D01*
G37*
G04 #@! TD*
D10*
G04 #@! TO.C,D3*
X185100000Y-74000000D03*
X182900000Y-74000000D03*
G04 #@! TD*
D14*
G04 #@! TO.C,D4*
X176000000Y-65000000D03*
D15*
G36*
X175707180Y-63907180D02*
X177092820Y-64707180D01*
X176292820Y-66092820D01*
X174907180Y-65292820D01*
X175707180Y-63907180D01*
X175707180Y-63907180D01*
G37*
D14*
X177100000Y-63094744D03*
D15*
G36*
X176807180Y-62001924D02*
X178192820Y-62801924D01*
X177392820Y-64187564D01*
X176007180Y-63387564D01*
X176807180Y-62001924D01*
X176807180Y-62001924D01*
G37*
G04 #@! TD*
D16*
G04 #@! TO.C,J1*
X184000000Y-51000000D03*
G04 #@! TD*
G04 #@! TO.C,J2*
X170000000Y-74000000D03*
G04 #@! TD*
G04 #@! TO.C,J3*
X198000000Y-74000000D03*
G04 #@! TD*
D17*
G04 #@! TO.C,Q1*
X182460000Y-72000000D03*
D18*
X185000000Y-72000000D03*
G04 #@! TD*
D17*
G04 #@! TO.C,Q2*
X178000000Y-66000000D03*
D15*
G36*
X178402628Y-67502628D02*
X176497372Y-66402628D01*
X177597372Y-64497372D01*
X179502628Y-65597372D01*
X178402628Y-67502628D01*
X178402628Y-67502628D01*
G37*
D17*
X179270000Y-63800295D03*
G04 #@! TD*
G04 #@! TO.C,Q3*
X190000000Y-66000000D03*
X188730000Y-63800295D03*
D15*
G36*
X187227372Y-63397667D02*
X189132628Y-62297667D01*
X190232628Y-64202923D01*
X188327372Y-65302923D01*
X187227372Y-63397667D01*
X187227372Y-63397667D01*
G37*
G04 #@! TD*
M02*
