G04 #@! TF.GenerationSoftware,KiCad,Pcbnew,(5.0.0)*
G04 #@! TF.CreationDate,2018-09-04T17:15:42+01:00*
G04 #@! TF.ProjectId,BlinkIR,426C696E6B49522E6B696361645F7063,rev?*
G04 #@! TF.SameCoordinates,Original*
G04 #@! TF.FileFunction,Legend,Top*
G04 #@! TF.FilePolarity,Positive*
%FSLAX46Y46*%
G04 Gerber Fmt 4.6, Leading zero omitted, Abs format (unit mm)*
G04 Created by KiCad (PCBNEW (5.0.0)) date 09/04/18 17:15:42*
%MOMM*%
%LPD*%
G01*
G04 APERTURE LIST*
%ADD10C,0.120000*%
%ADD11C,0.010000*%
G04 APERTURE END LIST*
D10*
G04 #@! TO.C,D1*
X182200000Y-61300000D02*
X185000000Y-61300000D01*
X182200000Y-62700000D02*
X185000000Y-62700000D01*
X182200000Y-61300000D02*
X182200000Y-62700000D01*
G04 #@! TO.C,R1*
X183500000Y-63320000D02*
X184500000Y-63320000D01*
X184500000Y-64680000D02*
X183500000Y-64680000D01*
G04 #@! TO.C,R2*
X177680000Y-72500000D02*
X177680000Y-73500000D01*
X176320000Y-73500000D02*
X176320000Y-72500000D01*
G04 #@! TO.C,R3*
X191680000Y-72500000D02*
X191680000Y-73500000D01*
X190320000Y-73500000D02*
X190320000Y-72500000D01*
G04 #@! TO.C,R4*
X184500000Y-58680000D02*
X183500000Y-58680000D01*
X183500000Y-57320000D02*
X184500000Y-57320000D01*
G04 #@! TO.C,U1*
X183000000Y-68610000D02*
X185450000Y-68610000D01*
X184800000Y-65390000D02*
X183000000Y-65390000D01*
G04 #@! TO.C,D2*
X191843782Y-65861474D02*
X190443782Y-63436603D01*
X193056218Y-65161474D02*
X191656218Y-62736603D01*
X191843782Y-65861474D02*
X193056218Y-65161474D01*
G04 #@! TO.C,D3*
X182200000Y-73300000D02*
X182200000Y-74700000D01*
X182200000Y-74700000D02*
X185000000Y-74700000D01*
X182200000Y-73300000D02*
X185000000Y-73300000D01*
G04 #@! TO.C,D4*
X175043782Y-65256218D02*
X176443782Y-62831347D01*
X176256218Y-65956218D02*
X177656218Y-63531347D01*
X175043782Y-65256218D02*
X176256218Y-65956218D01*
D11*
G04 #@! TO.C,G\002A\002A\002A*
G36*
X188288406Y-57408445D02*
X188346848Y-57485519D01*
X188427581Y-57607111D01*
X188526722Y-57767423D01*
X188617649Y-57921326D01*
X188735671Y-58127268D01*
X188821881Y-58286601D01*
X188878044Y-58406797D01*
X188905929Y-58495330D01*
X188907303Y-58559672D01*
X188883932Y-58607296D01*
X188837584Y-58645674D01*
X188794669Y-58669878D01*
X188700868Y-58702479D01*
X188612110Y-58710243D01*
X188518611Y-58727447D01*
X188471049Y-58768980D01*
X188407608Y-58820402D01*
X188311893Y-58870727D01*
X188266444Y-58888341D01*
X188171837Y-58919855D01*
X188115175Y-58933138D01*
X188073999Y-58930052D01*
X188025852Y-58912463D01*
X188017419Y-58909007D01*
X187944824Y-58863739D01*
X187901514Y-58823494D01*
X187869408Y-58778051D01*
X187813505Y-58690157D01*
X187740340Y-58570898D01*
X187656448Y-58431363D01*
X187568364Y-58282641D01*
X187482620Y-58135821D01*
X187405753Y-58001991D01*
X187368994Y-57936344D01*
X187625669Y-57936344D01*
X187635996Y-57966251D01*
X187673188Y-58037119D01*
X187729645Y-58136386D01*
X187797768Y-58251488D01*
X187869957Y-58369865D01*
X187938611Y-58478954D01*
X187996133Y-58566193D01*
X188034921Y-58619019D01*
X188044215Y-58628201D01*
X188076338Y-58646699D01*
X188105489Y-58646522D01*
X188155932Y-58623764D01*
X188194062Y-58604070D01*
X188258303Y-58561268D01*
X188287768Y-58522734D01*
X188287970Y-58520316D01*
X188272920Y-58480556D01*
X188233011Y-58400303D01*
X188176101Y-58293671D01*
X188110050Y-58174776D01*
X188042716Y-58057731D01*
X187981959Y-57956652D01*
X187935639Y-57885651D01*
X187931056Y-57879325D01*
X187899992Y-57845420D01*
X187863005Y-57839184D01*
X187798174Y-57860020D01*
X187762157Y-57874713D01*
X187682451Y-57908824D01*
X187632510Y-57932205D01*
X187625669Y-57936344D01*
X187368994Y-57936344D01*
X187344297Y-57892239D01*
X187304785Y-57817654D01*
X187293571Y-57791857D01*
X187316207Y-57772564D01*
X188103140Y-57772564D01*
X188122309Y-57813556D01*
X188167147Y-57896988D01*
X188230866Y-58010538D01*
X188303177Y-58135885D01*
X188402351Y-58297913D01*
X188477999Y-58403681D01*
X188531795Y-58455386D01*
X188550856Y-58461654D01*
X188608029Y-58440656D01*
X188624915Y-58418262D01*
X188614559Y-58380622D01*
X188578620Y-58301397D01*
X188524169Y-58193645D01*
X188458281Y-58070426D01*
X188388028Y-57944799D01*
X188320484Y-57829821D01*
X188262722Y-57738553D01*
X188237384Y-57702795D01*
X188201374Y-57698624D01*
X188148226Y-57721085D01*
X188108283Y-57754409D01*
X188103140Y-57772564D01*
X187316207Y-57772564D01*
X187318741Y-57770405D01*
X187391496Y-57731213D01*
X187499981Y-57679332D01*
X187632341Y-57619814D01*
X187776723Y-57557710D01*
X187921272Y-57498072D01*
X188054133Y-57445952D01*
X188163452Y-57406399D01*
X188237374Y-57384467D01*
X188256140Y-57381688D01*
X188288406Y-57408445D01*
X188288406Y-57408445D01*
G37*
X188288406Y-57408445D02*
X188346848Y-57485519D01*
X188427581Y-57607111D01*
X188526722Y-57767423D01*
X188617649Y-57921326D01*
X188735671Y-58127268D01*
X188821881Y-58286601D01*
X188878044Y-58406797D01*
X188905929Y-58495330D01*
X188907303Y-58559672D01*
X188883932Y-58607296D01*
X188837584Y-58645674D01*
X188794669Y-58669878D01*
X188700868Y-58702479D01*
X188612110Y-58710243D01*
X188518611Y-58727447D01*
X188471049Y-58768980D01*
X188407608Y-58820402D01*
X188311893Y-58870727D01*
X188266444Y-58888341D01*
X188171837Y-58919855D01*
X188115175Y-58933138D01*
X188073999Y-58930052D01*
X188025852Y-58912463D01*
X188017419Y-58909007D01*
X187944824Y-58863739D01*
X187901514Y-58823494D01*
X187869408Y-58778051D01*
X187813505Y-58690157D01*
X187740340Y-58570898D01*
X187656448Y-58431363D01*
X187568364Y-58282641D01*
X187482620Y-58135821D01*
X187405753Y-58001991D01*
X187368994Y-57936344D01*
X187625669Y-57936344D01*
X187635996Y-57966251D01*
X187673188Y-58037119D01*
X187729645Y-58136386D01*
X187797768Y-58251488D01*
X187869957Y-58369865D01*
X187938611Y-58478954D01*
X187996133Y-58566193D01*
X188034921Y-58619019D01*
X188044215Y-58628201D01*
X188076338Y-58646699D01*
X188105489Y-58646522D01*
X188155932Y-58623764D01*
X188194062Y-58604070D01*
X188258303Y-58561268D01*
X188287768Y-58522734D01*
X188287970Y-58520316D01*
X188272920Y-58480556D01*
X188233011Y-58400303D01*
X188176101Y-58293671D01*
X188110050Y-58174776D01*
X188042716Y-58057731D01*
X187981959Y-57956652D01*
X187935639Y-57885651D01*
X187931056Y-57879325D01*
X187899992Y-57845420D01*
X187863005Y-57839184D01*
X187798174Y-57860020D01*
X187762157Y-57874713D01*
X187682451Y-57908824D01*
X187632510Y-57932205D01*
X187625669Y-57936344D01*
X187368994Y-57936344D01*
X187344297Y-57892239D01*
X187304785Y-57817654D01*
X187293571Y-57791857D01*
X187316207Y-57772564D01*
X188103140Y-57772564D01*
X188122309Y-57813556D01*
X188167147Y-57896988D01*
X188230866Y-58010538D01*
X188303177Y-58135885D01*
X188402351Y-58297913D01*
X188477999Y-58403681D01*
X188531795Y-58455386D01*
X188550856Y-58461654D01*
X188608029Y-58440656D01*
X188624915Y-58418262D01*
X188614559Y-58380622D01*
X188578620Y-58301397D01*
X188524169Y-58193645D01*
X188458281Y-58070426D01*
X188388028Y-57944799D01*
X188320484Y-57829821D01*
X188262722Y-57738553D01*
X188237384Y-57702795D01*
X188201374Y-57698624D01*
X188148226Y-57721085D01*
X188108283Y-57754409D01*
X188103140Y-57772564D01*
X187316207Y-57772564D01*
X187318741Y-57770405D01*
X187391496Y-57731213D01*
X187499981Y-57679332D01*
X187632341Y-57619814D01*
X187776723Y-57557710D01*
X187921272Y-57498072D01*
X188054133Y-57445952D01*
X188163452Y-57406399D01*
X188237374Y-57384467D01*
X188256140Y-57381688D01*
X188288406Y-57408445D01*
G36*
X189103312Y-58780631D02*
X189125899Y-58794192D01*
X189134719Y-58804638D01*
X189186917Y-58882743D01*
X189226128Y-58955539D01*
X189242560Y-59003772D01*
X189240253Y-59012117D01*
X189207267Y-59026612D01*
X189126413Y-59059587D01*
X189009150Y-59106435D01*
X188866933Y-59162549D01*
X188837030Y-59174272D01*
X188692656Y-59231500D01*
X188572449Y-59280456D01*
X188487379Y-59316574D01*
X188448416Y-59335288D01*
X188447118Y-59336581D01*
X188462329Y-59365951D01*
X188504123Y-59440091D01*
X188566740Y-59548942D01*
X188644421Y-59682442D01*
X188675618Y-59735713D01*
X188765140Y-59889437D01*
X188825570Y-59997883D01*
X188860546Y-60070376D01*
X188873706Y-60116238D01*
X188868688Y-60144794D01*
X188849131Y-60165366D01*
X188844597Y-60168757D01*
X188781069Y-60203607D01*
X188745672Y-60212281D01*
X188715945Y-60186255D01*
X188661899Y-60114910D01*
X188590541Y-60008342D01*
X188508880Y-59876649D01*
X188486085Y-59838283D01*
X188361766Y-59626874D01*
X188266365Y-59463880D01*
X188196343Y-59342954D01*
X188148156Y-59257749D01*
X188118263Y-59201919D01*
X188103123Y-59169118D01*
X188099194Y-59152998D01*
X188101083Y-59148360D01*
X188133170Y-59133673D01*
X188214445Y-59099814D01*
X188334845Y-59050884D01*
X188484304Y-58990983D01*
X188603353Y-58943721D01*
X188785070Y-58872433D01*
X188916888Y-58822845D01*
X189007843Y-58792592D01*
X189066973Y-58779309D01*
X189103312Y-58780631D01*
X189103312Y-58780631D01*
G37*
X189103312Y-58780631D02*
X189125899Y-58794192D01*
X189134719Y-58804638D01*
X189186917Y-58882743D01*
X189226128Y-58955539D01*
X189242560Y-59003772D01*
X189240253Y-59012117D01*
X189207267Y-59026612D01*
X189126413Y-59059587D01*
X189009150Y-59106435D01*
X188866933Y-59162549D01*
X188837030Y-59174272D01*
X188692656Y-59231500D01*
X188572449Y-59280456D01*
X188487379Y-59316574D01*
X188448416Y-59335288D01*
X188447118Y-59336581D01*
X188462329Y-59365951D01*
X188504123Y-59440091D01*
X188566740Y-59548942D01*
X188644421Y-59682442D01*
X188675618Y-59735713D01*
X188765140Y-59889437D01*
X188825570Y-59997883D01*
X188860546Y-60070376D01*
X188873706Y-60116238D01*
X188868688Y-60144794D01*
X188849131Y-60165366D01*
X188844597Y-60168757D01*
X188781069Y-60203607D01*
X188745672Y-60212281D01*
X188715945Y-60186255D01*
X188661899Y-60114910D01*
X188590541Y-60008342D01*
X188508880Y-59876649D01*
X188486085Y-59838283D01*
X188361766Y-59626874D01*
X188266365Y-59463880D01*
X188196343Y-59342954D01*
X188148156Y-59257749D01*
X188118263Y-59201919D01*
X188103123Y-59169118D01*
X188099194Y-59152998D01*
X188101083Y-59148360D01*
X188133170Y-59133673D01*
X188214445Y-59099814D01*
X188334845Y-59050884D01*
X188484304Y-58990983D01*
X188603353Y-58943721D01*
X188785070Y-58872433D01*
X188916888Y-58822845D01*
X189007843Y-58792592D01*
X189066973Y-58779309D01*
X189103312Y-58780631D01*
G36*
X179169214Y-58492754D02*
X179246423Y-58555344D01*
X179323452Y-58630688D01*
X179362480Y-58688330D01*
X179374224Y-58751543D01*
X179370876Y-58825580D01*
X179367629Y-58914832D01*
X179379105Y-58954299D01*
X179407315Y-58957304D01*
X179483663Y-58942042D01*
X179581974Y-58929217D01*
X179682995Y-58920354D01*
X179767474Y-58916977D01*
X179816159Y-58920612D01*
X179821303Y-58924516D01*
X179802029Y-58985322D01*
X179754706Y-59065492D01*
X179695082Y-59143276D01*
X179638906Y-59196924D01*
X179615942Y-59208130D01*
X179549000Y-59219397D01*
X179445698Y-59235286D01*
X179366252Y-59246911D01*
X179181752Y-59273308D01*
X179057735Y-59502698D01*
X178933717Y-59732089D01*
X179091044Y-59847577D01*
X179173532Y-59909830D01*
X179230495Y-59956074D01*
X179248371Y-59974450D01*
X179232511Y-60013675D01*
X179194450Y-60078599D01*
X179148469Y-60147497D01*
X179108849Y-60198640D01*
X179092054Y-60212281D01*
X179060299Y-60193816D01*
X178987463Y-60142849D01*
X178882667Y-60066021D01*
X178755032Y-59969970D01*
X178673456Y-59907549D01*
X178537072Y-59800495D01*
X178419754Y-59704469D01*
X178330425Y-59627089D01*
X178278006Y-59575968D01*
X178268063Y-59561502D01*
X178279717Y-59520768D01*
X178317662Y-59436117D01*
X178321923Y-59427518D01*
X178553179Y-59427518D01*
X178782555Y-59609802D01*
X178951388Y-59298322D01*
X179021928Y-59166077D01*
X179082011Y-59049531D01*
X179124381Y-58962995D01*
X179140630Y-58925048D01*
X179136670Y-58862044D01*
X179078615Y-58792422D01*
X179072899Y-58787439D01*
X179029621Y-58752563D01*
X178994003Y-58737124D01*
X178959268Y-58747510D01*
X178918638Y-58790109D01*
X178865334Y-58871310D01*
X178792579Y-58997500D01*
X178728856Y-59111691D01*
X178553179Y-59427518D01*
X178321923Y-59427518D01*
X178375936Y-59318517D01*
X178448576Y-59178934D01*
X178529620Y-59028335D01*
X178613105Y-58877687D01*
X178693071Y-58737958D01*
X178763553Y-58620114D01*
X178818590Y-58535122D01*
X178844375Y-58501441D01*
X178938365Y-58437263D01*
X179047139Y-58434434D01*
X179169214Y-58492754D01*
X179169214Y-58492754D01*
G37*
X179169214Y-58492754D02*
X179246423Y-58555344D01*
X179323452Y-58630688D01*
X179362480Y-58688330D01*
X179374224Y-58751543D01*
X179370876Y-58825580D01*
X179367629Y-58914832D01*
X179379105Y-58954299D01*
X179407315Y-58957304D01*
X179483663Y-58942042D01*
X179581974Y-58929217D01*
X179682995Y-58920354D01*
X179767474Y-58916977D01*
X179816159Y-58920612D01*
X179821303Y-58924516D01*
X179802029Y-58985322D01*
X179754706Y-59065492D01*
X179695082Y-59143276D01*
X179638906Y-59196924D01*
X179615942Y-59208130D01*
X179549000Y-59219397D01*
X179445698Y-59235286D01*
X179366252Y-59246911D01*
X179181752Y-59273308D01*
X179057735Y-59502698D01*
X178933717Y-59732089D01*
X179091044Y-59847577D01*
X179173532Y-59909830D01*
X179230495Y-59956074D01*
X179248371Y-59974450D01*
X179232511Y-60013675D01*
X179194450Y-60078599D01*
X179148469Y-60147497D01*
X179108849Y-60198640D01*
X179092054Y-60212281D01*
X179060299Y-60193816D01*
X178987463Y-60142849D01*
X178882667Y-60066021D01*
X178755032Y-59969970D01*
X178673456Y-59907549D01*
X178537072Y-59800495D01*
X178419754Y-59704469D01*
X178330425Y-59627089D01*
X178278006Y-59575968D01*
X178268063Y-59561502D01*
X178279717Y-59520768D01*
X178317662Y-59436117D01*
X178321923Y-59427518D01*
X178553179Y-59427518D01*
X178782555Y-59609802D01*
X178951388Y-59298322D01*
X179021928Y-59166077D01*
X179082011Y-59049531D01*
X179124381Y-58962995D01*
X179140630Y-58925048D01*
X179136670Y-58862044D01*
X179078615Y-58792422D01*
X179072899Y-58787439D01*
X179029621Y-58752563D01*
X178994003Y-58737124D01*
X178959268Y-58747510D01*
X178918638Y-58790109D01*
X178865334Y-58871310D01*
X178792579Y-58997500D01*
X178728856Y-59111691D01*
X178553179Y-59427518D01*
X178321923Y-59427518D01*
X178375936Y-59318517D01*
X178448576Y-59178934D01*
X178529620Y-59028335D01*
X178613105Y-58877687D01*
X178693071Y-58737958D01*
X178763553Y-58620114D01*
X178818590Y-58535122D01*
X178844375Y-58501441D01*
X178938365Y-58437263D01*
X179047139Y-58434434D01*
X179169214Y-58492754D01*
G36*
X189803778Y-59970652D02*
X189838938Y-60002886D01*
X189882134Y-60064089D01*
X189920036Y-60131754D01*
X189939314Y-60183370D01*
X189937497Y-60196450D01*
X189906116Y-60210958D01*
X189827514Y-60243914D01*
X189713729Y-60290502D01*
X189576798Y-60345907D01*
X189428756Y-60405313D01*
X189281642Y-60463906D01*
X189147490Y-60516869D01*
X189038338Y-60559388D01*
X188966223Y-60586647D01*
X188943180Y-60594235D01*
X188921042Y-60569559D01*
X188880139Y-60507602D01*
X188862359Y-60478153D01*
X188825690Y-60401736D01*
X188815194Y-60348126D01*
X188819428Y-60338309D01*
X188863325Y-60313474D01*
X188952657Y-60273696D01*
X189074883Y-60223660D01*
X189217463Y-60168050D01*
X189367855Y-60111551D01*
X189513519Y-60058845D01*
X189641914Y-60014618D01*
X189740500Y-59983553D01*
X189796735Y-59970333D01*
X189803778Y-59970652D01*
X189803778Y-59970652D01*
G37*
X189803778Y-59970652D02*
X189838938Y-60002886D01*
X189882134Y-60064089D01*
X189920036Y-60131754D01*
X189939314Y-60183370D01*
X189937497Y-60196450D01*
X189906116Y-60210958D01*
X189827514Y-60243914D01*
X189713729Y-60290502D01*
X189576798Y-60345907D01*
X189428756Y-60405313D01*
X189281642Y-60463906D01*
X189147490Y-60516869D01*
X189038338Y-60559388D01*
X188966223Y-60586647D01*
X188943180Y-60594235D01*
X188921042Y-60569559D01*
X188880139Y-60507602D01*
X188862359Y-60478153D01*
X188825690Y-60401736D01*
X188815194Y-60348126D01*
X188819428Y-60338309D01*
X188863325Y-60313474D01*
X188952657Y-60273696D01*
X189074883Y-60223660D01*
X189217463Y-60168050D01*
X189367855Y-60111551D01*
X189513519Y-60058845D01*
X189641914Y-60014618D01*
X189740500Y-59983553D01*
X189796735Y-59970333D01*
X189803778Y-59970652D01*
G36*
X178166416Y-59795565D02*
X178237804Y-59840489D01*
X178338466Y-59909476D01*
X178458044Y-59994846D01*
X178586185Y-60088918D01*
X178712534Y-60184013D01*
X178826734Y-60272450D01*
X178918431Y-60346549D01*
X178977269Y-60398630D01*
X178993734Y-60419530D01*
X178978794Y-60469616D01*
X178943029Y-60540058D01*
X178900019Y-60608103D01*
X178863347Y-60650996D01*
X178852564Y-60656032D01*
X178816627Y-60636669D01*
X178740709Y-60584676D01*
X178634602Y-60507107D01*
X178508099Y-60411019D01*
X178452632Y-60367924D01*
X178290760Y-60241464D01*
X178172663Y-60147977D01*
X178092463Y-60080601D01*
X178044278Y-60032474D01*
X178022229Y-59996733D01*
X178020437Y-59966517D01*
X178033022Y-59934963D01*
X178051672Y-59899960D01*
X178094991Y-59827858D01*
X178132375Y-59783940D01*
X178134656Y-59782384D01*
X178166416Y-59795565D01*
X178166416Y-59795565D01*
G37*
X178166416Y-59795565D02*
X178237804Y-59840489D01*
X178338466Y-59909476D01*
X178458044Y-59994846D01*
X178586185Y-60088918D01*
X178712534Y-60184013D01*
X178826734Y-60272450D01*
X178918431Y-60346549D01*
X178977269Y-60398630D01*
X178993734Y-60419530D01*
X178978794Y-60469616D01*
X178943029Y-60540058D01*
X178900019Y-60608103D01*
X178863347Y-60650996D01*
X178852564Y-60656032D01*
X178816627Y-60636669D01*
X178740709Y-60584676D01*
X178634602Y-60507107D01*
X178508099Y-60411019D01*
X178452632Y-60367924D01*
X178290760Y-60241464D01*
X178172663Y-60147977D01*
X178092463Y-60080601D01*
X178044278Y-60032474D01*
X178022229Y-59996733D01*
X178020437Y-59966517D01*
X178033022Y-59934963D01*
X178051672Y-59899960D01*
X178094991Y-59827858D01*
X178132375Y-59783940D01*
X178134656Y-59782384D01*
X178166416Y-59795565D01*
G36*
X190096426Y-60454611D02*
X190139520Y-60502280D01*
X190180530Y-60571774D01*
X190241232Y-60684491D01*
X190087147Y-61188424D01*
X190034742Y-61359435D01*
X189988289Y-61510308D01*
X189951210Y-61629990D01*
X189926924Y-61707428D01*
X189919428Y-61730414D01*
X189924824Y-61740921D01*
X189957005Y-61737716D01*
X190022031Y-61718753D01*
X190125963Y-61681989D01*
X190274861Y-61625377D01*
X190474787Y-61546872D01*
X190539571Y-61521152D01*
X190706335Y-61454832D01*
X190829797Y-61696838D01*
X190362580Y-61878264D01*
X190200138Y-61940401D01*
X190057255Y-61993286D01*
X189945019Y-62032953D01*
X189874519Y-62055437D01*
X189857196Y-62059043D01*
X189815554Y-62035250D01*
X189757606Y-61976529D01*
X189737835Y-61951945D01*
X189685714Y-61864509D01*
X189658012Y-61780806D01*
X189656642Y-61764126D01*
X189665895Y-61705998D01*
X189691380Y-61600168D01*
X189729683Y-61459485D01*
X189777390Y-61296800D01*
X189802425Y-61215316D01*
X189851633Y-61053121D01*
X189891502Y-60913105D01*
X189919154Y-60806099D01*
X189931711Y-60742935D01*
X189931167Y-60730833D01*
X189896880Y-60735514D01*
X189815553Y-60760590D01*
X189698952Y-60802077D01*
X189558841Y-60855989D01*
X189542827Y-60862376D01*
X189401759Y-60917883D01*
X189284012Y-60962422D01*
X189201027Y-60991796D01*
X189164244Y-61001808D01*
X189163496Y-61001533D01*
X189137146Y-60958536D01*
X189103599Y-60890475D01*
X189073649Y-60821298D01*
X189058087Y-60774954D01*
X189058320Y-60768162D01*
X189090312Y-60753390D01*
X189171272Y-60719936D01*
X189290766Y-60672005D01*
X189438362Y-60613803D01*
X189529370Y-60578303D01*
X189721769Y-60504971D01*
X189865041Y-60456032D01*
X189968820Y-60431391D01*
X190042737Y-60430949D01*
X190096426Y-60454611D01*
X190096426Y-60454611D01*
G37*
X190096426Y-60454611D02*
X190139520Y-60502280D01*
X190180530Y-60571774D01*
X190241232Y-60684491D01*
X190087147Y-61188424D01*
X190034742Y-61359435D01*
X189988289Y-61510308D01*
X189951210Y-61629990D01*
X189926924Y-61707428D01*
X189919428Y-61730414D01*
X189924824Y-61740921D01*
X189957005Y-61737716D01*
X190022031Y-61718753D01*
X190125963Y-61681989D01*
X190274861Y-61625377D01*
X190474787Y-61546872D01*
X190539571Y-61521152D01*
X190706335Y-61454832D01*
X190829797Y-61696838D01*
X190362580Y-61878264D01*
X190200138Y-61940401D01*
X190057255Y-61993286D01*
X189945019Y-62032953D01*
X189874519Y-62055437D01*
X189857196Y-62059043D01*
X189815554Y-62035250D01*
X189757606Y-61976529D01*
X189737835Y-61951945D01*
X189685714Y-61864509D01*
X189658012Y-61780806D01*
X189656642Y-61764126D01*
X189665895Y-61705998D01*
X189691380Y-61600168D01*
X189729683Y-61459485D01*
X189777390Y-61296800D01*
X189802425Y-61215316D01*
X189851633Y-61053121D01*
X189891502Y-60913105D01*
X189919154Y-60806099D01*
X189931711Y-60742935D01*
X189931167Y-60730833D01*
X189896880Y-60735514D01*
X189815553Y-60760590D01*
X189698952Y-60802077D01*
X189558841Y-60855989D01*
X189542827Y-60862376D01*
X189401759Y-60917883D01*
X189284012Y-60962422D01*
X189201027Y-60991796D01*
X189164244Y-61001808D01*
X189163496Y-61001533D01*
X189137146Y-60958536D01*
X189103599Y-60890475D01*
X189073649Y-60821298D01*
X189058087Y-60774954D01*
X189058320Y-60768162D01*
X189090312Y-60753390D01*
X189171272Y-60719936D01*
X189290766Y-60672005D01*
X189438362Y-60613803D01*
X189529370Y-60578303D01*
X189721769Y-60504971D01*
X189865041Y-60456032D01*
X189968820Y-60431391D01*
X190042737Y-60430949D01*
X190096426Y-60454611D01*
G36*
X177935138Y-60182360D02*
X177957340Y-60232780D01*
X177980925Y-60333624D01*
X178008990Y-60490053D01*
X178023638Y-60578321D01*
X178046936Y-60718966D01*
X178066392Y-60833820D01*
X178079792Y-60909978D01*
X178084801Y-60934720D01*
X178115133Y-60929880D01*
X178194820Y-60912030D01*
X178311569Y-60884034D01*
X178445643Y-60850640D01*
X178585723Y-60816135D01*
X178700000Y-60789767D01*
X178776362Y-60774207D01*
X178802757Y-60771898D01*
X178790067Y-60804718D01*
X178757704Y-60875525D01*
X178733963Y-60925109D01*
X178682832Y-61015375D01*
X178626393Y-61065982D01*
X178539487Y-61097756D01*
X178519113Y-61102971D01*
X178338087Y-61148918D01*
X178207941Y-61185992D01*
X178117519Y-61219604D01*
X178055665Y-61255163D01*
X178011222Y-61298078D01*
X177973035Y-61353759D01*
X177961323Y-61373433D01*
X177914234Y-61459889D01*
X177884742Y-61525775D01*
X177879699Y-61545802D01*
X177903387Y-61580297D01*
X177965525Y-61639089D01*
X178052725Y-61709525D01*
X178053821Y-61710353D01*
X178227942Y-61841816D01*
X178164577Y-61966021D01*
X178120908Y-62041519D01*
X178085457Y-62085575D01*
X178076358Y-62090225D01*
X178044034Y-62071738D01*
X177970386Y-62020581D01*
X177864311Y-61943208D01*
X177734701Y-61846075D01*
X177632655Y-61768184D01*
X177213806Y-61446143D01*
X177276848Y-61322570D01*
X177321004Y-61247238D01*
X177357732Y-61203472D01*
X177367318Y-61198997D01*
X177404838Y-61217555D01*
X177474949Y-61265838D01*
X177549247Y-61322957D01*
X177703750Y-61446917D01*
X177792358Y-61284884D01*
X177880965Y-61122852D01*
X177827710Y-60775956D01*
X177774454Y-60429060D01*
X177845880Y-60282044D01*
X177882505Y-60212153D01*
X177911225Y-60177204D01*
X177935138Y-60182360D01*
X177935138Y-60182360D01*
G37*
X177935138Y-60182360D02*
X177957340Y-60232780D01*
X177980925Y-60333624D01*
X178008990Y-60490053D01*
X178023638Y-60578321D01*
X178046936Y-60718966D01*
X178066392Y-60833820D01*
X178079792Y-60909978D01*
X178084801Y-60934720D01*
X178115133Y-60929880D01*
X178194820Y-60912030D01*
X178311569Y-60884034D01*
X178445643Y-60850640D01*
X178585723Y-60816135D01*
X178700000Y-60789767D01*
X178776362Y-60774207D01*
X178802757Y-60771898D01*
X178790067Y-60804718D01*
X178757704Y-60875525D01*
X178733963Y-60925109D01*
X178682832Y-61015375D01*
X178626393Y-61065982D01*
X178539487Y-61097756D01*
X178519113Y-61102971D01*
X178338087Y-61148918D01*
X178207941Y-61185992D01*
X178117519Y-61219604D01*
X178055665Y-61255163D01*
X178011222Y-61298078D01*
X177973035Y-61353759D01*
X177961323Y-61373433D01*
X177914234Y-61459889D01*
X177884742Y-61525775D01*
X177879699Y-61545802D01*
X177903387Y-61580297D01*
X177965525Y-61639089D01*
X178052725Y-61709525D01*
X178053821Y-61710353D01*
X178227942Y-61841816D01*
X178164577Y-61966021D01*
X178120908Y-62041519D01*
X178085457Y-62085575D01*
X178076358Y-62090225D01*
X178044034Y-62071738D01*
X177970386Y-62020581D01*
X177864311Y-61943208D01*
X177734701Y-61846075D01*
X177632655Y-61768184D01*
X177213806Y-61446143D01*
X177276848Y-61322570D01*
X177321004Y-61247238D01*
X177357732Y-61203472D01*
X177367318Y-61198997D01*
X177404838Y-61217555D01*
X177474949Y-61265838D01*
X177549247Y-61322957D01*
X177703750Y-61446917D01*
X177792358Y-61284884D01*
X177880965Y-61122852D01*
X177827710Y-60775956D01*
X177774454Y-60429060D01*
X177845880Y-60282044D01*
X177882505Y-60212153D01*
X177911225Y-60177204D01*
X177935138Y-60182360D01*
G36*
X193215899Y-65775727D02*
X193265201Y-65827663D01*
X193313077Y-65895659D01*
X193344229Y-65959454D01*
X193348753Y-65983015D01*
X193318256Y-66012792D01*
X193227005Y-66059002D01*
X193075657Y-66121322D01*
X193040019Y-66135012D01*
X192969887Y-66161706D01*
X193048989Y-66303235D01*
X193091815Y-66377875D01*
X193130484Y-66432141D01*
X193177349Y-66474681D01*
X193244765Y-66514144D01*
X193345084Y-66559181D01*
X193490661Y-66618440D01*
X193510685Y-66626487D01*
X193653539Y-66686026D01*
X193750044Y-66733534D01*
X193813934Y-66778012D01*
X193858943Y-66828462D01*
X193887224Y-66873286D01*
X193926755Y-66950931D01*
X193944020Y-67003571D01*
X193942387Y-67013837D01*
X193908029Y-67009546D01*
X193827052Y-66985562D01*
X193711915Y-66945902D01*
X193588208Y-66899670D01*
X193451187Y-66847652D01*
X193335628Y-66805478D01*
X193254612Y-66777813D01*
X193222187Y-66769173D01*
X193190985Y-66795300D01*
X193178328Y-66824875D01*
X193120328Y-67025363D01*
X193068367Y-67194385D01*
X193024958Y-67324410D01*
X192992616Y-67407908D01*
X192973855Y-67437349D01*
X192973852Y-67437349D01*
X192945891Y-67412030D01*
X192901307Y-67348202D01*
X192878116Y-67309475D01*
X192805229Y-67181845D01*
X192888534Y-66866015D01*
X192971838Y-66550184D01*
X192886779Y-66405042D01*
X192831442Y-66323203D01*
X192781684Y-66270567D01*
X192759640Y-66259900D01*
X192707475Y-66271793D01*
X192621626Y-66302084D01*
X192569048Y-66323559D01*
X192475039Y-66360496D01*
X192401488Y-66383466D01*
X192378575Y-66387218D01*
X192343611Y-66364066D01*
X192295363Y-66308093D01*
X192247879Y-66239519D01*
X192215207Y-66178568D01*
X192210931Y-66145878D01*
X192242672Y-66131268D01*
X192323367Y-66097842D01*
X192442617Y-66049807D01*
X192590025Y-65991369D01*
X192681711Y-65955389D01*
X192843098Y-65892267D01*
X192984886Y-65836782D01*
X193095847Y-65793328D01*
X193164756Y-65766303D01*
X193180467Y-65760112D01*
X193215899Y-65775727D01*
X193215899Y-65775727D01*
G37*
X193215899Y-65775727D02*
X193265201Y-65827663D01*
X193313077Y-65895659D01*
X193344229Y-65959454D01*
X193348753Y-65983015D01*
X193318256Y-66012792D01*
X193227005Y-66059002D01*
X193075657Y-66121322D01*
X193040019Y-66135012D01*
X192969887Y-66161706D01*
X193048989Y-66303235D01*
X193091815Y-66377875D01*
X193130484Y-66432141D01*
X193177349Y-66474681D01*
X193244765Y-66514144D01*
X193345084Y-66559181D01*
X193490661Y-66618440D01*
X193510685Y-66626487D01*
X193653539Y-66686026D01*
X193750044Y-66733534D01*
X193813934Y-66778012D01*
X193858943Y-66828462D01*
X193887224Y-66873286D01*
X193926755Y-66950931D01*
X193944020Y-67003571D01*
X193942387Y-67013837D01*
X193908029Y-67009546D01*
X193827052Y-66985562D01*
X193711915Y-66945902D01*
X193588208Y-66899670D01*
X193451187Y-66847652D01*
X193335628Y-66805478D01*
X193254612Y-66777813D01*
X193222187Y-66769173D01*
X193190985Y-66795300D01*
X193178328Y-66824875D01*
X193120328Y-67025363D01*
X193068367Y-67194385D01*
X193024958Y-67324410D01*
X192992616Y-67407908D01*
X192973855Y-67437349D01*
X192973852Y-67437349D01*
X192945891Y-67412030D01*
X192901307Y-67348202D01*
X192878116Y-67309475D01*
X192805229Y-67181845D01*
X192888534Y-66866015D01*
X192971838Y-66550184D01*
X192886779Y-66405042D01*
X192831442Y-66323203D01*
X192781684Y-66270567D01*
X192759640Y-66259900D01*
X192707475Y-66271793D01*
X192621626Y-66302084D01*
X192569048Y-66323559D01*
X192475039Y-66360496D01*
X192401488Y-66383466D01*
X192378575Y-66387218D01*
X192343611Y-66364066D01*
X192295363Y-66308093D01*
X192247879Y-66239519D01*
X192215207Y-66178568D01*
X192210931Y-66145878D01*
X192242672Y-66131268D01*
X192323367Y-66097842D01*
X192442617Y-66049807D01*
X192590025Y-65991369D01*
X192681711Y-65955389D01*
X192843098Y-65892267D01*
X192984886Y-65836782D01*
X193095847Y-65793328D01*
X193164756Y-65766303D01*
X193180467Y-65760112D01*
X193215899Y-65775727D01*
G36*
X175000827Y-65610303D02*
X175076777Y-65661951D01*
X175183659Y-65739725D01*
X175312052Y-65836846D01*
X175389035Y-65896530D01*
X175549446Y-66023825D01*
X175663408Y-66121610D01*
X175735661Y-66198220D01*
X175770944Y-66261988D01*
X175773997Y-66321249D01*
X175749561Y-66384337D01*
X175706114Y-66454052D01*
X175676945Y-66494004D01*
X175643974Y-66525725D01*
X175597317Y-66553064D01*
X175527090Y-66579870D01*
X175423409Y-66609992D01*
X175276392Y-66647278D01*
X175101438Y-66689524D01*
X174927771Y-66732017D01*
X174778017Y-66770369D01*
X174662164Y-66801881D01*
X174590197Y-66823856D01*
X174570935Y-66832832D01*
X174595297Y-66857533D01*
X174659715Y-66910980D01*
X174753031Y-66984109D01*
X174817528Y-67033121D01*
X174933940Y-67121254D01*
X175039362Y-67202161D01*
X175117607Y-67263374D01*
X175140510Y-67281894D01*
X175218237Y-67346291D01*
X175159370Y-67455602D01*
X175117515Y-67525196D01*
X175086474Y-67562636D01*
X175081642Y-67564714D01*
X175051085Y-67546237D01*
X174979602Y-67495507D01*
X174876515Y-67419354D01*
X174751148Y-67324609D01*
X174689402Y-67277308D01*
X174554824Y-67171542D01*
X174437376Y-67075016D01*
X174346992Y-66996216D01*
X174293607Y-66943628D01*
X174284768Y-66931704D01*
X174273563Y-66873187D01*
X174297518Y-66790100D01*
X174323938Y-66733708D01*
X174394361Y-66594110D01*
X174909349Y-66466792D01*
X175081921Y-66423232D01*
X175232375Y-66383556D01*
X175350014Y-66350723D01*
X175424144Y-66327688D01*
X175444563Y-66318837D01*
X175428597Y-66292895D01*
X175370457Y-66236825D01*
X175279018Y-66158537D01*
X175163149Y-66065941D01*
X175146466Y-66053043D01*
X174828142Y-65807886D01*
X174879741Y-65699682D01*
X174921381Y-65629487D01*
X174958966Y-65593015D01*
X174965231Y-65591560D01*
X175000827Y-65610303D01*
X175000827Y-65610303D01*
G37*
X175000827Y-65610303D02*
X175076777Y-65661951D01*
X175183659Y-65739725D01*
X175312052Y-65836846D01*
X175389035Y-65896530D01*
X175549446Y-66023825D01*
X175663408Y-66121610D01*
X175735661Y-66198220D01*
X175770944Y-66261988D01*
X175773997Y-66321249D01*
X175749561Y-66384337D01*
X175706114Y-66454052D01*
X175676945Y-66494004D01*
X175643974Y-66525725D01*
X175597317Y-66553064D01*
X175527090Y-66579870D01*
X175423409Y-66609992D01*
X175276392Y-66647278D01*
X175101438Y-66689524D01*
X174927771Y-66732017D01*
X174778017Y-66770369D01*
X174662164Y-66801881D01*
X174590197Y-66823856D01*
X174570935Y-66832832D01*
X174595297Y-66857533D01*
X174659715Y-66910980D01*
X174753031Y-66984109D01*
X174817528Y-67033121D01*
X174933940Y-67121254D01*
X175039362Y-67202161D01*
X175117607Y-67263374D01*
X175140510Y-67281894D01*
X175218237Y-67346291D01*
X175159370Y-67455602D01*
X175117515Y-67525196D01*
X175086474Y-67562636D01*
X175081642Y-67564714D01*
X175051085Y-67546237D01*
X174979602Y-67495507D01*
X174876515Y-67419354D01*
X174751148Y-67324609D01*
X174689402Y-67277308D01*
X174554824Y-67171542D01*
X174437376Y-67075016D01*
X174346992Y-66996216D01*
X174293607Y-66943628D01*
X174284768Y-66931704D01*
X174273563Y-66873187D01*
X174297518Y-66790100D01*
X174323938Y-66733708D01*
X174394361Y-66594110D01*
X174909349Y-66466792D01*
X175081921Y-66423232D01*
X175232375Y-66383556D01*
X175350014Y-66350723D01*
X175424144Y-66327688D01*
X175444563Y-66318837D01*
X175428597Y-66292895D01*
X175370457Y-66236825D01*
X175279018Y-66158537D01*
X175163149Y-66065941D01*
X175146466Y-66053043D01*
X174828142Y-65807886D01*
X174879741Y-65699682D01*
X174921381Y-65629487D01*
X174958966Y-65593015D01*
X174965231Y-65591560D01*
X175000827Y-65610303D01*
G36*
X194060886Y-67189599D02*
X194106966Y-67253149D01*
X194111074Y-67259768D01*
X194153128Y-67334511D01*
X194175269Y-67386939D01*
X194176280Y-67393606D01*
X194157667Y-67411198D01*
X194099403Y-67441919D01*
X193997651Y-67487396D01*
X193848573Y-67549258D01*
X193648333Y-67629130D01*
X193393091Y-67728641D01*
X193316248Y-67758316D01*
X193172220Y-67813846D01*
X193101229Y-67684243D01*
X193060956Y-67606641D01*
X193039444Y-67557025D01*
X193038365Y-67548408D01*
X193068679Y-67535617D01*
X193146155Y-67504535D01*
X193258626Y-67459943D01*
X193393921Y-67406619D01*
X193539871Y-67349346D01*
X193684309Y-67292902D01*
X193815065Y-67242067D01*
X193919969Y-67201622D01*
X193959884Y-67186427D01*
X194019403Y-67171018D01*
X194060886Y-67189599D01*
X194060886Y-67189599D01*
G37*
X194060886Y-67189599D02*
X194106966Y-67253149D01*
X194111074Y-67259768D01*
X194153128Y-67334511D01*
X194175269Y-67386939D01*
X194176280Y-67393606D01*
X194157667Y-67411198D01*
X194099403Y-67441919D01*
X193997651Y-67487396D01*
X193848573Y-67549258D01*
X193648333Y-67629130D01*
X193393091Y-67728641D01*
X193316248Y-67758316D01*
X193172220Y-67813846D01*
X193101229Y-67684243D01*
X193060956Y-67606641D01*
X193039444Y-67557025D01*
X193038365Y-67548408D01*
X193068679Y-67535617D01*
X193146155Y-67504535D01*
X193258626Y-67459943D01*
X193393921Y-67406619D01*
X193539871Y-67349346D01*
X193684309Y-67292902D01*
X193815065Y-67242067D01*
X193919969Y-67201622D01*
X193959884Y-67186427D01*
X194019403Y-67171018D01*
X194060886Y-67189599D01*
G36*
X174180849Y-67126179D02*
X174183131Y-67128087D01*
X174220219Y-67157653D01*
X174296006Y-67216944D01*
X174399388Y-67297368D01*
X174519261Y-67390333D01*
X174644521Y-67487248D01*
X174764064Y-67579523D01*
X174866785Y-67658566D01*
X174941582Y-67715785D01*
X174977349Y-67742589D01*
X174977471Y-67742674D01*
X174970699Y-67771707D01*
X174943204Y-67834443D01*
X174905856Y-67909320D01*
X174869526Y-67974774D01*
X174845086Y-68009242D01*
X174842434Y-68010526D01*
X174814479Y-67992068D01*
X174744845Y-67940986D01*
X174642118Y-67863724D01*
X174514885Y-67766721D01*
X174413382Y-67688628D01*
X174274282Y-67579356D01*
X174154869Y-67481987D01*
X174063539Y-67403655D01*
X174008688Y-67351496D01*
X173996491Y-67334302D01*
X174012056Y-67288435D01*
X174050736Y-67214720D01*
X174063771Y-67193015D01*
X174110208Y-67125725D01*
X174143857Y-67106371D01*
X174180849Y-67126179D01*
X174180849Y-67126179D01*
G37*
X174180849Y-67126179D02*
X174183131Y-67128087D01*
X174220219Y-67157653D01*
X174296006Y-67216944D01*
X174399388Y-67297368D01*
X174519261Y-67390333D01*
X174644521Y-67487248D01*
X174764064Y-67579523D01*
X174866785Y-67658566D01*
X174941582Y-67715785D01*
X174977349Y-67742589D01*
X174977471Y-67742674D01*
X174970699Y-67771707D01*
X174943204Y-67834443D01*
X174905856Y-67909320D01*
X174869526Y-67974774D01*
X174845086Y-68009242D01*
X174842434Y-68010526D01*
X174814479Y-67992068D01*
X174744845Y-67940986D01*
X174642118Y-67863724D01*
X174514885Y-67766721D01*
X174413382Y-67688628D01*
X174274282Y-67579356D01*
X174154869Y-67481987D01*
X174063539Y-67403655D01*
X174008688Y-67351496D01*
X173996491Y-67334302D01*
X174012056Y-67288435D01*
X174050736Y-67214720D01*
X174063771Y-67193015D01*
X174110208Y-67125725D01*
X174143857Y-67106371D01*
X174180849Y-67126179D01*
G36*
X174683306Y-68062822D02*
X174739210Y-68110829D01*
X174760401Y-68149669D01*
X174745737Y-68186931D01*
X174705737Y-68268581D01*
X174646389Y-68383589D01*
X174573684Y-68520925D01*
X174493609Y-68669558D01*
X174412153Y-68818458D01*
X174335306Y-68956595D01*
X174269055Y-69072937D01*
X174219391Y-69156455D01*
X174192301Y-69196118D01*
X174192170Y-69196251D01*
X174159300Y-69186975D01*
X174085949Y-69144194D01*
X173981464Y-69074027D01*
X173855189Y-68982593D01*
X173786934Y-68930916D01*
X173621905Y-68804563D01*
X173500915Y-68710919D01*
X173418346Y-68642859D01*
X173368582Y-68593254D01*
X173346007Y-68554978D01*
X173345006Y-68520904D01*
X173359961Y-68483906D01*
X173385257Y-68436855D01*
X173390152Y-68427403D01*
X173416012Y-68374016D01*
X173436958Y-68338313D01*
X173461681Y-68323438D01*
X173498869Y-68332534D01*
X173557212Y-68368742D01*
X173645400Y-68435207D01*
X173772120Y-68535070D01*
X173843617Y-68591416D01*
X173956890Y-68678550D01*
X174052567Y-68748657D01*
X174119270Y-68793618D01*
X174144298Y-68806026D01*
X174168533Y-68779511D01*
X174216520Y-68706826D01*
X174282090Y-68597987D01*
X174359070Y-68463011D01*
X174388883Y-68409046D01*
X174606212Y-68012307D01*
X174683306Y-68062822D01*
X174683306Y-68062822D01*
G37*
X174683306Y-68062822D02*
X174739210Y-68110829D01*
X174760401Y-68149669D01*
X174745737Y-68186931D01*
X174705737Y-68268581D01*
X174646389Y-68383589D01*
X174573684Y-68520925D01*
X174493609Y-68669558D01*
X174412153Y-68818458D01*
X174335306Y-68956595D01*
X174269055Y-69072937D01*
X174219391Y-69156455D01*
X174192301Y-69196118D01*
X174192170Y-69196251D01*
X174159300Y-69186975D01*
X174085949Y-69144194D01*
X173981464Y-69074027D01*
X173855189Y-68982593D01*
X173786934Y-68930916D01*
X173621905Y-68804563D01*
X173500915Y-68710919D01*
X173418346Y-68642859D01*
X173368582Y-68593254D01*
X173346007Y-68554978D01*
X173345006Y-68520904D01*
X173359961Y-68483906D01*
X173385257Y-68436855D01*
X173390152Y-68427403D01*
X173416012Y-68374016D01*
X173436958Y-68338313D01*
X173461681Y-68323438D01*
X173498869Y-68332534D01*
X173557212Y-68368742D01*
X173645400Y-68435207D01*
X173772120Y-68535070D01*
X173843617Y-68591416D01*
X173956890Y-68678550D01*
X174052567Y-68748657D01*
X174119270Y-68793618D01*
X174144298Y-68806026D01*
X174168533Y-68779511D01*
X174216520Y-68706826D01*
X174282090Y-68597987D01*
X174359070Y-68463011D01*
X174388883Y-68409046D01*
X174606212Y-68012307D01*
X174683306Y-68062822D01*
G36*
X194319975Y-67624333D02*
X194367612Y-67695755D01*
X194434157Y-67801802D01*
X194513401Y-67932075D01*
X194599137Y-68076177D01*
X194685156Y-68223711D01*
X194765251Y-68364279D01*
X194833213Y-68487483D01*
X194868312Y-68554053D01*
X194917412Y-68685675D01*
X194911172Y-68789308D01*
X194847086Y-68872473D01*
X194741653Y-68934335D01*
X194577275Y-68988054D01*
X194441044Y-68988170D01*
X194335995Y-68934748D01*
X194326494Y-68925626D01*
X194256015Y-68854010D01*
X194170780Y-69044222D01*
X194122768Y-69143202D01*
X194080784Y-69215558D01*
X194055354Y-69244498D01*
X194022157Y-69226068D01*
X193975086Y-69167808D01*
X193957569Y-69139997D01*
X193915291Y-69062360D01*
X193891728Y-69007476D01*
X193889975Y-68998391D01*
X193902202Y-68957881D01*
X193934408Y-68876456D01*
X193979882Y-68770994D01*
X193984550Y-68760557D01*
X194079126Y-68549766D01*
X193948957Y-68335848D01*
X193886807Y-68234189D01*
X193838550Y-68156151D01*
X193812704Y-68115484D01*
X193810776Y-68112806D01*
X193779457Y-68118435D01*
X193707034Y-68142520D01*
X193638298Y-68168507D01*
X193543281Y-68204322D01*
X193472854Y-68227865D01*
X193449044Y-68233333D01*
X193419932Y-68208071D01*
X193375251Y-68144294D01*
X193354157Y-68108613D01*
X193308850Y-68027998D01*
X193986687Y-68027998D01*
X194147841Y-68297771D01*
X194222418Y-68422098D01*
X194289355Y-68532770D01*
X194338848Y-68613618D01*
X194354855Y-68639160D01*
X194425628Y-68697824D01*
X194518242Y-68706200D01*
X194603796Y-68668683D01*
X194628226Y-68647898D01*
X194639767Y-68623179D01*
X194634933Y-68585795D01*
X194610241Y-68527015D01*
X194562205Y-68438107D01*
X194487343Y-68310342D01*
X194407858Y-68177716D01*
X194254835Y-67923156D01*
X193986687Y-68027998D01*
X193308850Y-68027998D01*
X193284061Y-67983893D01*
X193779646Y-67790317D01*
X193945499Y-67726098D01*
X194090471Y-67671030D01*
X194204287Y-67628931D01*
X194276673Y-67603618D01*
X194297453Y-67597933D01*
X194319975Y-67624333D01*
X194319975Y-67624333D01*
G37*
X194319975Y-67624333D02*
X194367612Y-67695755D01*
X194434157Y-67801802D01*
X194513401Y-67932075D01*
X194599137Y-68076177D01*
X194685156Y-68223711D01*
X194765251Y-68364279D01*
X194833213Y-68487483D01*
X194868312Y-68554053D01*
X194917412Y-68685675D01*
X194911172Y-68789308D01*
X194847086Y-68872473D01*
X194741653Y-68934335D01*
X194577275Y-68988054D01*
X194441044Y-68988170D01*
X194335995Y-68934748D01*
X194326494Y-68925626D01*
X194256015Y-68854010D01*
X194170780Y-69044222D01*
X194122768Y-69143202D01*
X194080784Y-69215558D01*
X194055354Y-69244498D01*
X194022157Y-69226068D01*
X193975086Y-69167808D01*
X193957569Y-69139997D01*
X193915291Y-69062360D01*
X193891728Y-69007476D01*
X193889975Y-68998391D01*
X193902202Y-68957881D01*
X193934408Y-68876456D01*
X193979882Y-68770994D01*
X193984550Y-68760557D01*
X194079126Y-68549766D01*
X193948957Y-68335848D01*
X193886807Y-68234189D01*
X193838550Y-68156151D01*
X193812704Y-68115484D01*
X193810776Y-68112806D01*
X193779457Y-68118435D01*
X193707034Y-68142520D01*
X193638298Y-68168507D01*
X193543281Y-68204322D01*
X193472854Y-68227865D01*
X193449044Y-68233333D01*
X193419932Y-68208071D01*
X193375251Y-68144294D01*
X193354157Y-68108613D01*
X193308850Y-68027998D01*
X193986687Y-68027998D01*
X194147841Y-68297771D01*
X194222418Y-68422098D01*
X194289355Y-68532770D01*
X194338848Y-68613618D01*
X194354855Y-68639160D01*
X194425628Y-68697824D01*
X194518242Y-68706200D01*
X194603796Y-68668683D01*
X194628226Y-68647898D01*
X194639767Y-68623179D01*
X194634933Y-68585795D01*
X194610241Y-68527015D01*
X194562205Y-68438107D01*
X194487343Y-68310342D01*
X194407858Y-68177716D01*
X194254835Y-67923156D01*
X193986687Y-68027998D01*
X193308850Y-68027998D01*
X193284061Y-67983893D01*
X193779646Y-67790317D01*
X193945499Y-67726098D01*
X194090471Y-67671030D01*
X194204287Y-67628931D01*
X194276673Y-67603618D01*
X194297453Y-67597933D01*
X194319975Y-67624333D01*
G36*
X173327441Y-68830269D02*
X173416677Y-68872982D01*
X173495804Y-68937397D01*
X173541832Y-69008069D01*
X173545134Y-69022209D01*
X173568804Y-69074888D01*
X173630719Y-69092348D01*
X173648488Y-69092732D01*
X173752323Y-69122518D01*
X173869081Y-69207839D01*
X173936874Y-69275858D01*
X173980985Y-69342479D01*
X173999970Y-69416078D01*
X173992387Y-69505030D01*
X173956795Y-69617712D01*
X173891750Y-69762500D01*
X173795812Y-69947769D01*
X173716656Y-70093045D01*
X173625698Y-70255578D01*
X173543375Y-70397760D01*
X173475169Y-70510506D01*
X173426567Y-70584733D01*
X173403770Y-70611233D01*
X173368297Y-70596522D01*
X173292371Y-70548588D01*
X173185342Y-70473859D01*
X173056558Y-70378766D01*
X172975074Y-70316423D01*
X172839137Y-70209250D01*
X172722264Y-70113592D01*
X172663652Y-70063109D01*
X173134563Y-70063109D01*
X173239274Y-70149996D01*
X173308471Y-70203769D01*
X173356887Y-70234800D01*
X173365521Y-70237740D01*
X173391300Y-70212729D01*
X173436480Y-70146891D01*
X173481471Y-70071491D01*
X173550159Y-69947830D01*
X173627595Y-69805393D01*
X173676683Y-69713408D01*
X173777481Y-69522431D01*
X173677572Y-69433095D01*
X173626172Y-69390531D01*
X173583953Y-69371139D01*
X173543848Y-69380853D01*
X173498790Y-69425608D01*
X173441712Y-69511338D01*
X173365545Y-69643978D01*
X173312777Y-69739400D01*
X173134563Y-70063109D01*
X172663652Y-70063109D01*
X172633320Y-70036984D01*
X172581170Y-69986963D01*
X172571296Y-69973192D01*
X172583355Y-69936218D01*
X172620904Y-69854629D01*
X172627715Y-69840909D01*
X172885960Y-69840909D01*
X172889142Y-69879715D01*
X172889757Y-69880514D01*
X172927566Y-69912150D01*
X172967892Y-69909023D01*
X173016149Y-69865706D01*
X173077748Y-69776773D01*
X173158103Y-69636800D01*
X173188024Y-69581531D01*
X173271682Y-69419213D01*
X173322411Y-69302143D01*
X173341851Y-69222115D01*
X173331641Y-69170920D01*
X173293421Y-69140352D01*
X173277390Y-69134192D01*
X173251759Y-69156708D01*
X173203273Y-69225451D01*
X173138532Y-69330214D01*
X173064134Y-69460790D01*
X173052303Y-69482423D01*
X172965255Y-69647861D01*
X172910569Y-69765490D01*
X172885960Y-69840909D01*
X172627715Y-69840909D01*
X172678179Y-69739268D01*
X172749413Y-69600977D01*
X172828839Y-69450598D01*
X172910691Y-69298975D01*
X172989203Y-69156948D01*
X173058608Y-69035361D01*
X173113141Y-68945055D01*
X173137093Y-68909338D01*
X173200636Y-68850177D01*
X173251090Y-68824700D01*
X173327441Y-68830269D01*
X173327441Y-68830269D01*
G37*
X173327441Y-68830269D02*
X173416677Y-68872982D01*
X173495804Y-68937397D01*
X173541832Y-69008069D01*
X173545134Y-69022209D01*
X173568804Y-69074888D01*
X173630719Y-69092348D01*
X173648488Y-69092732D01*
X173752323Y-69122518D01*
X173869081Y-69207839D01*
X173936874Y-69275858D01*
X173980985Y-69342479D01*
X173999970Y-69416078D01*
X173992387Y-69505030D01*
X173956795Y-69617712D01*
X173891750Y-69762500D01*
X173795812Y-69947769D01*
X173716656Y-70093045D01*
X173625698Y-70255578D01*
X173543375Y-70397760D01*
X173475169Y-70510506D01*
X173426567Y-70584733D01*
X173403770Y-70611233D01*
X173368297Y-70596522D01*
X173292371Y-70548588D01*
X173185342Y-70473859D01*
X173056558Y-70378766D01*
X172975074Y-70316423D01*
X172839137Y-70209250D01*
X172722264Y-70113592D01*
X172663652Y-70063109D01*
X173134563Y-70063109D01*
X173239274Y-70149996D01*
X173308471Y-70203769D01*
X173356887Y-70234800D01*
X173365521Y-70237740D01*
X173391300Y-70212729D01*
X173436480Y-70146891D01*
X173481471Y-70071491D01*
X173550159Y-69947830D01*
X173627595Y-69805393D01*
X173676683Y-69713408D01*
X173777481Y-69522431D01*
X173677572Y-69433095D01*
X173626172Y-69390531D01*
X173583953Y-69371139D01*
X173543848Y-69380853D01*
X173498790Y-69425608D01*
X173441712Y-69511338D01*
X173365545Y-69643978D01*
X173312777Y-69739400D01*
X173134563Y-70063109D01*
X172663652Y-70063109D01*
X172633320Y-70036984D01*
X172581170Y-69986963D01*
X172571296Y-69973192D01*
X172583355Y-69936218D01*
X172620904Y-69854629D01*
X172627715Y-69840909D01*
X172885960Y-69840909D01*
X172889142Y-69879715D01*
X172889757Y-69880514D01*
X172927566Y-69912150D01*
X172967892Y-69909023D01*
X173016149Y-69865706D01*
X173077748Y-69776773D01*
X173158103Y-69636800D01*
X173188024Y-69581531D01*
X173271682Y-69419213D01*
X173322411Y-69302143D01*
X173341851Y-69222115D01*
X173331641Y-69170920D01*
X173293421Y-69140352D01*
X173277390Y-69134192D01*
X173251759Y-69156708D01*
X173203273Y-69225451D01*
X173138532Y-69330214D01*
X173064134Y-69460790D01*
X173052303Y-69482423D01*
X172965255Y-69647861D01*
X172910569Y-69765490D01*
X172885960Y-69840909D01*
X172627715Y-69840909D01*
X172678179Y-69739268D01*
X172749413Y-69600977D01*
X172828839Y-69450598D01*
X172910691Y-69298975D01*
X172989203Y-69156948D01*
X173058608Y-69035361D01*
X173113141Y-68945055D01*
X173137093Y-68909338D01*
X173200636Y-68850177D01*
X173251090Y-68824700D01*
X173327441Y-68830269D01*
G04 #@! TD*
M02*
