G04 #@! TF.GenerationSoftware,KiCad,Pcbnew,(5.0.0)*
G04 #@! TF.CreationDate,2018-09-04T17:15:42+01:00*
G04 #@! TF.ProjectId,BlinkIR,426C696E6B49522E6B696361645F7063,rev?*
G04 #@! TF.SameCoordinates,Original*
G04 #@! TF.FileFunction,Paste,Top*
G04 #@! TF.FilePolarity,Positive*
%FSLAX46Y46*%
G04 Gerber Fmt 4.6, Leading zero omitted, Abs format (unit mm)*
G04 Created by KiCad (PCBNEW (5.0.0)) date 09/04/18 17:15:42*
%MOMM*%
%LPD*%
G01*
G04 APERTURE LIST*
%ADD10R,1.200000X1.200000*%
%ADD11R,0.500000X0.900000*%
%ADD12R,0.900000X0.500000*%
%ADD13R,1.060000X0.650000*%
%ADD14C,1.200000*%
%ADD15C,0.100000*%
G04 APERTURE END LIST*
D10*
G04 #@! TO.C,D1*
X182900000Y-62000000D03*
X185100000Y-62000000D03*
G04 #@! TD*
D11*
G04 #@! TO.C,R1*
X184750000Y-64000000D03*
X183250000Y-64000000D03*
G04 #@! TD*
D12*
G04 #@! TO.C,R2*
X177000000Y-73750000D03*
X177000000Y-72250000D03*
G04 #@! TD*
G04 #@! TO.C,R3*
X191000000Y-73750000D03*
X191000000Y-72250000D03*
G04 #@! TD*
D11*
G04 #@! TO.C,R4*
X183250000Y-58000000D03*
X184750000Y-58000000D03*
G04 #@! TD*
D13*
G04 #@! TO.C,U1*
X182800000Y-67000000D03*
X182800000Y-67950000D03*
X182800000Y-66050000D03*
X185000000Y-66050000D03*
X185000000Y-67000000D03*
X185000000Y-67950000D03*
G04 #@! TD*
D14*
G04 #@! TO.C,D2*
X192100000Y-64905256D03*
D15*
G36*
X191280385Y-64685641D02*
X192319615Y-64085641D01*
X192919615Y-65124871D01*
X191880385Y-65724871D01*
X191280385Y-64685641D01*
X191280385Y-64685641D01*
G37*
D14*
X191000000Y-63000000D03*
D15*
G36*
X190180385Y-62780385D02*
X191219615Y-62180385D01*
X191819615Y-63219615D01*
X190780385Y-63819615D01*
X190180385Y-62780385D01*
X190180385Y-62780385D01*
G37*
G04 #@! TD*
D10*
G04 #@! TO.C,D3*
X185100000Y-74000000D03*
X182900000Y-74000000D03*
G04 #@! TD*
D14*
G04 #@! TO.C,D4*
X176000000Y-65000000D03*
D15*
G36*
X175780385Y-64180385D02*
X176819615Y-64780385D01*
X176219615Y-65819615D01*
X175180385Y-65219615D01*
X175780385Y-64180385D01*
X175780385Y-64180385D01*
G37*
D14*
X177100000Y-63094744D03*
D15*
G36*
X176880385Y-62275129D02*
X177919615Y-62875129D01*
X177319615Y-63914359D01*
X176280385Y-63314359D01*
X176880385Y-62275129D01*
X176880385Y-62275129D01*
G37*
G04 #@! TD*
M02*
