G04 #@! TF.GenerationSoftware,KiCad,Pcbnew,(5.0.0)*
G04 #@! TF.CreationDate,2018-09-04T17:15:42+01:00*
G04 #@! TF.ProjectId,BlinkIR,426C696E6B49522E6B696361645F7063,rev?*
G04 #@! TF.SameCoordinates,Original*
G04 #@! TF.FileFunction,Copper,L2,Bot,Signal*
G04 #@! TF.FilePolarity,Positive*
%FSLAX46Y46*%
G04 Gerber Fmt 4.6, Leading zero omitted, Abs format (unit mm)*
G04 Created by KiCad (PCBNEW (5.0.0)) date 09/04/18 17:15:42*
%MOMM*%
%LPD*%
G01*
G04 APERTURE LIST*
G04 #@! TA.AperFunction,BGAPad,CuDef*
%ADD10C,1.500000*%
G04 #@! TD*
G04 #@! TA.AperFunction,ComponentPad*
%ADD11C,7.600000*%
G04 #@! TD*
G04 #@! TA.AperFunction,ComponentPad*
%ADD12C,1.800000*%
G04 #@! TD*
G04 #@! TA.AperFunction,ComponentPad*
%ADD13R,1.800000X1.800000*%
G04 #@! TD*
G04 #@! TA.AperFunction,Conductor*
%ADD14C,0.100000*%
G04 #@! TD*
G04 #@! TA.AperFunction,ViaPad*
%ADD15C,0.800000*%
G04 #@! TD*
G04 #@! TA.AperFunction,Conductor*
%ADD16C,0.250000*%
G04 #@! TD*
G04 #@! TA.AperFunction,Conductor*
%ADD17C,0.254000*%
G04 #@! TD*
G04 APERTURE END LIST*
D10*
G04 #@! TO.P,TP1,1*
G04 #@! TO.N,VCC*
X178740000Y-74420000D03*
G04 #@! TD*
G04 #@! TO.P,TP2,1*
G04 #@! TO.N,/RESET*
X181280000Y-74420000D03*
G04 #@! TD*
G04 #@! TO.P,TP3,1*
G04 #@! TO.N,/SENCE_BLINK*
X186360000Y-74420000D03*
G04 #@! TD*
G04 #@! TO.P,TP4,1*
G04 #@! TO.N,/SEND_BLINK*
X183820000Y-74420000D03*
G04 #@! TD*
G04 #@! TO.P,TP5,1*
G04 #@! TO.N,GND*
X188900000Y-74420000D03*
G04 #@! TD*
D11*
G04 #@! TO.P,J1,1*
G04 #@! TO.N,VCC*
X184000000Y-51000000D03*
G04 #@! TD*
G04 #@! TO.P,J2,1*
G04 #@! TO.N,VCC*
X170000000Y-74000000D03*
G04 #@! TD*
G04 #@! TO.P,J3,1*
G04 #@! TO.N,GND*
X198000000Y-74000000D03*
G04 #@! TD*
D12*
G04 #@! TO.P,Q1,2*
G04 #@! TO.N,GND*
X182460000Y-72000000D03*
D13*
G04 #@! TO.P,Q1,1*
G04 #@! TO.N,/SENCE_BLINK*
X185000000Y-72000000D03*
G04 #@! TD*
D12*
G04 #@! TO.P,Q2,1*
G04 #@! TO.N,/SENCE_BLINK*
X178000000Y-66000000D03*
D14*
G04 #@! TD*
G04 #@! TO.N,/SENCE_BLINK*
G04 #@! TO.C,Q2*
G36*
X178329423Y-67229423D02*
X176770577Y-66329423D01*
X177670577Y-64770577D01*
X179229423Y-65670577D01*
X178329423Y-67229423D01*
X178329423Y-67229423D01*
G37*
D12*
G04 #@! TO.P,Q2,2*
G04 #@! TO.N,GND*
X179270000Y-63800295D03*
G04 #@! TD*
G04 #@! TO.P,Q3,2*
G04 #@! TO.N,GND*
X190000000Y-66000000D03*
G04 #@! TO.P,Q3,1*
G04 #@! TO.N,/SENCE_BLINK*
X188730000Y-63800295D03*
D14*
G04 #@! TD*
G04 #@! TO.N,/SENCE_BLINK*
G04 #@! TO.C,Q3*
G36*
X187500577Y-63470872D02*
X189059423Y-62570872D01*
X189959423Y-64129718D01*
X188400577Y-65029718D01*
X187500577Y-63470872D01*
X187500577Y-63470872D01*
G37*
D15*
G04 #@! TO.N,VCC*
X177000000Y-74800000D03*
X176018482Y-70000000D03*
G04 #@! TO.N,GND*
X188200000Y-70400000D03*
X183000000Y-70200000D03*
X186600000Y-68800000D03*
G04 #@! TO.N,/RESET*
X177000000Y-71200000D03*
G04 #@! TO.N,Net-(D2-Pad2)*
X178000000Y-61400000D03*
X190200000Y-61400000D03*
X193600000Y-69200000D03*
G04 #@! TO.N,/SEND_BLINK*
X181000000Y-72950000D03*
G04 #@! TD*
D16*
G04 #@! TO.N,VCC*
X177380000Y-74420000D02*
X177000000Y-74800000D01*
X178740000Y-74420000D02*
X177380000Y-74420000D01*
X174000000Y-70000000D02*
X170000000Y-74000000D01*
X176018482Y-70000000D02*
X174000000Y-70000000D01*
G04 #@! TO.N,/RESET*
X178060000Y-71200000D02*
X181280000Y-74420000D01*
X177000000Y-71200000D02*
X178060000Y-71200000D01*
G04 #@! TO.N,Net-(D2-Pad2)*
X178000000Y-61400000D02*
X190200000Y-61400000D01*
X193600000Y-68634315D02*
X193600000Y-69200000D01*
X193600000Y-65606245D02*
X193600000Y-68634315D01*
X193279255Y-65044940D02*
X193600000Y-65606245D01*
X190200000Y-61965685D02*
X193279255Y-65044940D01*
X190200000Y-61400000D02*
X190200000Y-61965685D01*
G04 #@! TO.N,/SENCE_BLINK*
X186360000Y-73359340D02*
X186360000Y-74420000D01*
X186360000Y-72210000D02*
X186360000Y-73359340D01*
X186150000Y-72000000D02*
X186360000Y-72210000D01*
X185000000Y-72000000D02*
X186150000Y-72000000D01*
X188730000Y-63800295D02*
X186530295Y-66000000D01*
X185000000Y-72000000D02*
X185000000Y-66000000D01*
X186530295Y-66000000D02*
X185000000Y-66000000D01*
X185000000Y-66000000D02*
X178000000Y-66000000D01*
G04 #@! TO.N,/SEND_BLINK*
X183820000Y-74420000D02*
X182800000Y-73400000D01*
X182800000Y-73400000D02*
X182000000Y-73400000D01*
X182000000Y-73400000D02*
X181600000Y-73000000D01*
X181565685Y-72950000D02*
X181000000Y-72950000D01*
X181600000Y-72984315D02*
X181565685Y-72950000D01*
X181600000Y-73000000D02*
X181600000Y-72984315D01*
G04 #@! TD*
D17*
G04 #@! TO.N,GND*
G36*
X192669888Y-65510375D02*
X192840000Y-65808071D01*
X192840001Y-68496288D01*
X192796063Y-68540226D01*
X192682795Y-68709744D01*
X192604774Y-68898102D01*
X192565000Y-69098061D01*
X192565000Y-69301939D01*
X192604774Y-69501898D01*
X192682795Y-69690256D01*
X192796063Y-69859774D01*
X192940226Y-70003937D01*
X193109744Y-70117205D01*
X193298102Y-70195226D01*
X193498061Y-70235000D01*
X193701939Y-70235000D01*
X193901898Y-70195226D01*
X194090256Y-70117205D01*
X194259774Y-70003937D01*
X194403937Y-69859774D01*
X194517205Y-69690256D01*
X194595226Y-69501898D01*
X194635000Y-69301939D01*
X194635000Y-69098061D01*
X194595226Y-68898102D01*
X194517205Y-68709744D01*
X194403937Y-68540226D01*
X194360000Y-68496289D01*
X194360000Y-67561051D01*
X195400850Y-69382539D01*
X195461521Y-69468006D01*
X195563172Y-69564066D01*
X195681609Y-69638448D01*
X195812282Y-69688296D01*
X195950169Y-69711692D01*
X196089971Y-69707738D01*
X196226316Y-69676587D01*
X196248681Y-69666573D01*
X197044395Y-69426312D01*
X197853117Y-69329858D01*
X198666313Y-69375302D01*
X199459263Y-69561267D01*
X200207868Y-69882097D01*
X200889390Y-70328049D01*
X201483124Y-70885575D01*
X201971024Y-71537731D01*
X202338261Y-72264693D01*
X202573688Y-73044395D01*
X202670142Y-73853118D01*
X202624698Y-74666315D01*
X202438733Y-75459263D01*
X202117903Y-76207867D01*
X201671949Y-76889392D01*
X201114425Y-77483124D01*
X200462271Y-77971023D01*
X199735307Y-78338262D01*
X198955607Y-78573688D01*
X198146882Y-78670142D01*
X197333685Y-78624698D01*
X196540737Y-78438733D01*
X195792133Y-78117903D01*
X195110608Y-77671949D01*
X194530709Y-77127414D01*
X195052191Y-77127414D01*
X195484368Y-77678536D01*
X196250351Y-78098629D01*
X197083573Y-78361215D01*
X197952013Y-78456201D01*
X198822297Y-78379938D01*
X199660980Y-78135356D01*
X200435833Y-77731855D01*
X200515632Y-77678536D01*
X200947809Y-77127414D01*
X198000000Y-74179605D01*
X195052191Y-77127414D01*
X194530709Y-77127414D01*
X194516876Y-77114425D01*
X194028977Y-76462271D01*
X193661527Y-75734888D01*
X193659128Y-75726980D01*
X193593200Y-75603637D01*
X193504475Y-75495525D01*
X193396363Y-75406800D01*
X193273020Y-75340872D01*
X193139184Y-75300273D01*
X193034877Y-75290000D01*
X189949608Y-75290000D01*
X189856995Y-75197387D01*
X190095860Y-75131863D01*
X190211760Y-74884884D01*
X190277250Y-74620040D01*
X190289812Y-74347508D01*
X190248965Y-74077762D01*
X190203542Y-73952013D01*
X193543799Y-73952013D01*
X193620062Y-74822297D01*
X193864644Y-75660980D01*
X194268145Y-76435833D01*
X194321464Y-76515632D01*
X194872586Y-76947809D01*
X197820395Y-74000000D01*
X198179605Y-74000000D01*
X201127414Y-76947809D01*
X201678536Y-76515632D01*
X202098629Y-75749649D01*
X202361215Y-74916427D01*
X202456201Y-74047987D01*
X202379938Y-73177703D01*
X202135356Y-72339020D01*
X201731855Y-71564167D01*
X201678536Y-71484368D01*
X201127414Y-71052191D01*
X198179605Y-74000000D01*
X197820395Y-74000000D01*
X194872586Y-71052191D01*
X194321464Y-71484368D01*
X193901371Y-72250351D01*
X193638785Y-73083573D01*
X193543799Y-73952013D01*
X190203542Y-73952013D01*
X190156277Y-73821168D01*
X190095860Y-73708137D01*
X189856993Y-73642612D01*
X189079605Y-74420000D01*
X189093748Y-74434143D01*
X188914143Y-74613748D01*
X188900000Y-74599605D01*
X188885858Y-74613748D01*
X188706253Y-74434143D01*
X188720395Y-74420000D01*
X187943007Y-73642612D01*
X187704140Y-73708137D01*
X187629836Y-73866477D01*
X187587371Y-73763957D01*
X187435799Y-73537114D01*
X187361692Y-73463007D01*
X188122612Y-73463007D01*
X188900000Y-74240395D01*
X189677388Y-73463007D01*
X189611863Y-73224140D01*
X189364884Y-73108240D01*
X189100040Y-73042750D01*
X188827508Y-73030188D01*
X188557762Y-73071035D01*
X188301168Y-73163723D01*
X188188137Y-73224140D01*
X188122612Y-73463007D01*
X187361692Y-73463007D01*
X187242886Y-73344201D01*
X187120000Y-73262091D01*
X187120000Y-72247323D01*
X187123676Y-72210000D01*
X187120000Y-72172677D01*
X187120000Y-72172667D01*
X187109003Y-72061014D01*
X187065546Y-71917753D01*
X186994974Y-71785724D01*
X186900001Y-71669999D01*
X186870998Y-71646197D01*
X186713804Y-71489003D01*
X186690001Y-71459999D01*
X186574276Y-71365026D01*
X186538072Y-71345674D01*
X186538072Y-71100000D01*
X186525812Y-70975518D01*
X186494588Y-70872586D01*
X195052191Y-70872586D01*
X198000000Y-73820395D01*
X200947809Y-70872586D01*
X200515632Y-70321464D01*
X199749649Y-69901371D01*
X198916427Y-69638785D01*
X198047987Y-69543799D01*
X197177703Y-69620062D01*
X196339020Y-69864644D01*
X195564167Y-70268145D01*
X195484368Y-70321464D01*
X195052191Y-70872586D01*
X186494588Y-70872586D01*
X186489502Y-70855820D01*
X186430537Y-70745506D01*
X186351185Y-70648815D01*
X186254494Y-70569463D01*
X186144180Y-70510498D01*
X186024482Y-70474188D01*
X185900000Y-70461928D01*
X185760000Y-70461928D01*
X185760000Y-67363757D01*
X189766062Y-67363757D01*
X189965624Y-67542044D01*
X190267123Y-67519120D01*
X190558356Y-67437818D01*
X190828132Y-67301261D01*
X191066083Y-67114697D01*
X191263065Y-66885296D01*
X191352637Y-66741252D01*
X191298017Y-66479283D01*
X190089803Y-66155543D01*
X189766062Y-67363757D01*
X185760000Y-67363757D01*
X185760000Y-66760000D01*
X186492973Y-66760000D01*
X186530295Y-66763676D01*
X186567617Y-66760000D01*
X186567628Y-66760000D01*
X186679281Y-66749003D01*
X186822542Y-66705546D01*
X186954571Y-66634974D01*
X187070296Y-66540001D01*
X187094099Y-66510997D01*
X187639472Y-65965624D01*
X188457956Y-65965624D01*
X188480880Y-66267123D01*
X188562182Y-66558356D01*
X188698739Y-66828132D01*
X188885303Y-67066083D01*
X189114704Y-67263065D01*
X189258748Y-67352637D01*
X189520717Y-67298017D01*
X189844457Y-66089803D01*
X188636243Y-65766062D01*
X188457956Y-65965624D01*
X187639472Y-65965624D01*
X188047300Y-65557797D01*
X188118365Y-65601987D01*
X188235432Y-65646048D01*
X188358845Y-65666424D01*
X188483862Y-65662331D01*
X188605678Y-65633928D01*
X188719613Y-65582305D01*
X188786884Y-65543466D01*
X189575045Y-65754653D01*
X189806251Y-65985859D01*
X189881913Y-65910197D01*
X190155543Y-65910197D01*
X191363757Y-66233938D01*
X191542044Y-66034376D01*
X191519120Y-65732877D01*
X191437818Y-65441644D01*
X191301261Y-65171868D01*
X191114697Y-64933917D01*
X190885296Y-64736935D01*
X190741252Y-64647363D01*
X190479283Y-64701983D01*
X190155543Y-65910197D01*
X189881913Y-65910197D01*
X189985859Y-65806251D01*
X189934260Y-65754652D01*
X190211189Y-64721143D01*
X190278459Y-64682305D01*
X190380133Y-64609446D01*
X190465640Y-64518152D01*
X190531692Y-64411930D01*
X190575753Y-64294863D01*
X190596129Y-64171450D01*
X190592036Y-64046433D01*
X190563633Y-63924617D01*
X190512010Y-63810682D01*
X189886117Y-62726603D01*
X192669888Y-65510375D01*
X192669888Y-65510375D01*
G37*
X192669888Y-65510375D02*
X192840000Y-65808071D01*
X192840001Y-68496288D01*
X192796063Y-68540226D01*
X192682795Y-68709744D01*
X192604774Y-68898102D01*
X192565000Y-69098061D01*
X192565000Y-69301939D01*
X192604774Y-69501898D01*
X192682795Y-69690256D01*
X192796063Y-69859774D01*
X192940226Y-70003937D01*
X193109744Y-70117205D01*
X193298102Y-70195226D01*
X193498061Y-70235000D01*
X193701939Y-70235000D01*
X193901898Y-70195226D01*
X194090256Y-70117205D01*
X194259774Y-70003937D01*
X194403937Y-69859774D01*
X194517205Y-69690256D01*
X194595226Y-69501898D01*
X194635000Y-69301939D01*
X194635000Y-69098061D01*
X194595226Y-68898102D01*
X194517205Y-68709744D01*
X194403937Y-68540226D01*
X194360000Y-68496289D01*
X194360000Y-67561051D01*
X195400850Y-69382539D01*
X195461521Y-69468006D01*
X195563172Y-69564066D01*
X195681609Y-69638448D01*
X195812282Y-69688296D01*
X195950169Y-69711692D01*
X196089971Y-69707738D01*
X196226316Y-69676587D01*
X196248681Y-69666573D01*
X197044395Y-69426312D01*
X197853117Y-69329858D01*
X198666313Y-69375302D01*
X199459263Y-69561267D01*
X200207868Y-69882097D01*
X200889390Y-70328049D01*
X201483124Y-70885575D01*
X201971024Y-71537731D01*
X202338261Y-72264693D01*
X202573688Y-73044395D01*
X202670142Y-73853118D01*
X202624698Y-74666315D01*
X202438733Y-75459263D01*
X202117903Y-76207867D01*
X201671949Y-76889392D01*
X201114425Y-77483124D01*
X200462271Y-77971023D01*
X199735307Y-78338262D01*
X198955607Y-78573688D01*
X198146882Y-78670142D01*
X197333685Y-78624698D01*
X196540737Y-78438733D01*
X195792133Y-78117903D01*
X195110608Y-77671949D01*
X194530709Y-77127414D01*
X195052191Y-77127414D01*
X195484368Y-77678536D01*
X196250351Y-78098629D01*
X197083573Y-78361215D01*
X197952013Y-78456201D01*
X198822297Y-78379938D01*
X199660980Y-78135356D01*
X200435833Y-77731855D01*
X200515632Y-77678536D01*
X200947809Y-77127414D01*
X198000000Y-74179605D01*
X195052191Y-77127414D01*
X194530709Y-77127414D01*
X194516876Y-77114425D01*
X194028977Y-76462271D01*
X193661527Y-75734888D01*
X193659128Y-75726980D01*
X193593200Y-75603637D01*
X193504475Y-75495525D01*
X193396363Y-75406800D01*
X193273020Y-75340872D01*
X193139184Y-75300273D01*
X193034877Y-75290000D01*
X189949608Y-75290000D01*
X189856995Y-75197387D01*
X190095860Y-75131863D01*
X190211760Y-74884884D01*
X190277250Y-74620040D01*
X190289812Y-74347508D01*
X190248965Y-74077762D01*
X190203542Y-73952013D01*
X193543799Y-73952013D01*
X193620062Y-74822297D01*
X193864644Y-75660980D01*
X194268145Y-76435833D01*
X194321464Y-76515632D01*
X194872586Y-76947809D01*
X197820395Y-74000000D01*
X198179605Y-74000000D01*
X201127414Y-76947809D01*
X201678536Y-76515632D01*
X202098629Y-75749649D01*
X202361215Y-74916427D01*
X202456201Y-74047987D01*
X202379938Y-73177703D01*
X202135356Y-72339020D01*
X201731855Y-71564167D01*
X201678536Y-71484368D01*
X201127414Y-71052191D01*
X198179605Y-74000000D01*
X197820395Y-74000000D01*
X194872586Y-71052191D01*
X194321464Y-71484368D01*
X193901371Y-72250351D01*
X193638785Y-73083573D01*
X193543799Y-73952013D01*
X190203542Y-73952013D01*
X190156277Y-73821168D01*
X190095860Y-73708137D01*
X189856993Y-73642612D01*
X189079605Y-74420000D01*
X189093748Y-74434143D01*
X188914143Y-74613748D01*
X188900000Y-74599605D01*
X188885858Y-74613748D01*
X188706253Y-74434143D01*
X188720395Y-74420000D01*
X187943007Y-73642612D01*
X187704140Y-73708137D01*
X187629836Y-73866477D01*
X187587371Y-73763957D01*
X187435799Y-73537114D01*
X187361692Y-73463007D01*
X188122612Y-73463007D01*
X188900000Y-74240395D01*
X189677388Y-73463007D01*
X189611863Y-73224140D01*
X189364884Y-73108240D01*
X189100040Y-73042750D01*
X188827508Y-73030188D01*
X188557762Y-73071035D01*
X188301168Y-73163723D01*
X188188137Y-73224140D01*
X188122612Y-73463007D01*
X187361692Y-73463007D01*
X187242886Y-73344201D01*
X187120000Y-73262091D01*
X187120000Y-72247323D01*
X187123676Y-72210000D01*
X187120000Y-72172677D01*
X187120000Y-72172667D01*
X187109003Y-72061014D01*
X187065546Y-71917753D01*
X186994974Y-71785724D01*
X186900001Y-71669999D01*
X186870998Y-71646197D01*
X186713804Y-71489003D01*
X186690001Y-71459999D01*
X186574276Y-71365026D01*
X186538072Y-71345674D01*
X186538072Y-71100000D01*
X186525812Y-70975518D01*
X186494588Y-70872586D01*
X195052191Y-70872586D01*
X198000000Y-73820395D01*
X200947809Y-70872586D01*
X200515632Y-70321464D01*
X199749649Y-69901371D01*
X198916427Y-69638785D01*
X198047987Y-69543799D01*
X197177703Y-69620062D01*
X196339020Y-69864644D01*
X195564167Y-70268145D01*
X195484368Y-70321464D01*
X195052191Y-70872586D01*
X186494588Y-70872586D01*
X186489502Y-70855820D01*
X186430537Y-70745506D01*
X186351185Y-70648815D01*
X186254494Y-70569463D01*
X186144180Y-70510498D01*
X186024482Y-70474188D01*
X185900000Y-70461928D01*
X185760000Y-70461928D01*
X185760000Y-67363757D01*
X189766062Y-67363757D01*
X189965624Y-67542044D01*
X190267123Y-67519120D01*
X190558356Y-67437818D01*
X190828132Y-67301261D01*
X191066083Y-67114697D01*
X191263065Y-66885296D01*
X191352637Y-66741252D01*
X191298017Y-66479283D01*
X190089803Y-66155543D01*
X189766062Y-67363757D01*
X185760000Y-67363757D01*
X185760000Y-66760000D01*
X186492973Y-66760000D01*
X186530295Y-66763676D01*
X186567617Y-66760000D01*
X186567628Y-66760000D01*
X186679281Y-66749003D01*
X186822542Y-66705546D01*
X186954571Y-66634974D01*
X187070296Y-66540001D01*
X187094099Y-66510997D01*
X187639472Y-65965624D01*
X188457956Y-65965624D01*
X188480880Y-66267123D01*
X188562182Y-66558356D01*
X188698739Y-66828132D01*
X188885303Y-67066083D01*
X189114704Y-67263065D01*
X189258748Y-67352637D01*
X189520717Y-67298017D01*
X189844457Y-66089803D01*
X188636243Y-65766062D01*
X188457956Y-65965624D01*
X187639472Y-65965624D01*
X188047300Y-65557797D01*
X188118365Y-65601987D01*
X188235432Y-65646048D01*
X188358845Y-65666424D01*
X188483862Y-65662331D01*
X188605678Y-65633928D01*
X188719613Y-65582305D01*
X188786884Y-65543466D01*
X189575045Y-65754653D01*
X189806251Y-65985859D01*
X189881913Y-65910197D01*
X190155543Y-65910197D01*
X191363757Y-66233938D01*
X191542044Y-66034376D01*
X191519120Y-65732877D01*
X191437818Y-65441644D01*
X191301261Y-65171868D01*
X191114697Y-64933917D01*
X190885296Y-64736935D01*
X190741252Y-64647363D01*
X190479283Y-64701983D01*
X190155543Y-65910197D01*
X189881913Y-65910197D01*
X189985859Y-65806251D01*
X189934260Y-65754652D01*
X190211189Y-64721143D01*
X190278459Y-64682305D01*
X190380133Y-64609446D01*
X190465640Y-64518152D01*
X190531692Y-64411930D01*
X190575753Y-64294863D01*
X190596129Y-64171450D01*
X190592036Y-64046433D01*
X190563633Y-63924617D01*
X190512010Y-63810682D01*
X189886117Y-62726603D01*
X192669888Y-65510375D01*
G36*
X177004774Y-61701898D02*
X177082795Y-61890256D01*
X177196063Y-62059774D01*
X177340226Y-62203937D01*
X177509744Y-62317205D01*
X177698102Y-62395226D01*
X177898061Y-62435000D01*
X178101939Y-62435000D01*
X178301898Y-62395226D01*
X178490256Y-62317205D01*
X178659774Y-62203937D01*
X178703711Y-62160000D01*
X188494929Y-62160000D01*
X187181541Y-62918285D01*
X187079867Y-62991144D01*
X186994360Y-63082438D01*
X186928308Y-63188660D01*
X186884247Y-63305727D01*
X186863871Y-63429140D01*
X186867964Y-63554157D01*
X186896367Y-63675973D01*
X186947990Y-63789908D01*
X187210648Y-64244845D01*
X186215494Y-65240000D01*
X185037333Y-65240000D01*
X185000000Y-65236323D01*
X184962667Y-65240000D01*
X179696168Y-65240000D01*
X179650133Y-65190849D01*
X179548459Y-65117990D01*
X179481189Y-65079152D01*
X179204260Y-64045643D01*
X179255859Y-63994044D01*
X179151913Y-63890098D01*
X179425543Y-63890098D01*
X179749283Y-65098312D01*
X180011252Y-65152932D01*
X180260895Y-64982330D01*
X180472459Y-64766304D01*
X180637814Y-64513154D01*
X180750604Y-64232609D01*
X180806495Y-63935451D01*
X180812044Y-63765919D01*
X180633757Y-63566357D01*
X179425543Y-63890098D01*
X179151913Y-63890098D01*
X179076251Y-63814436D01*
X178845045Y-64045642D01*
X178056884Y-64256829D01*
X177989613Y-64217990D01*
X177875678Y-64166367D01*
X177753862Y-64137964D01*
X177628845Y-64133871D01*
X177505432Y-64154247D01*
X177388365Y-64198308D01*
X177282143Y-64264360D01*
X177190849Y-64349867D01*
X177117990Y-64451541D01*
X176217990Y-66010387D01*
X176166367Y-66124322D01*
X176137964Y-66246138D01*
X176133871Y-66371155D01*
X176154247Y-66494568D01*
X176198308Y-66611635D01*
X176264360Y-66717857D01*
X176349867Y-66809151D01*
X176451541Y-66882010D01*
X178010387Y-67782010D01*
X178124322Y-67833633D01*
X178246138Y-67862036D01*
X178371155Y-67866129D01*
X178494568Y-67845753D01*
X178611635Y-67801692D01*
X178717857Y-67735640D01*
X178809151Y-67650133D01*
X178882010Y-67548459D01*
X179337227Y-66760000D01*
X184240001Y-66760000D01*
X184240000Y-70461928D01*
X184100000Y-70461928D01*
X183975518Y-70474188D01*
X183855820Y-70510498D01*
X183745506Y-70569463D01*
X183648815Y-70648815D01*
X183569463Y-70745506D01*
X183510498Y-70855820D01*
X183507187Y-70866735D01*
X183460422Y-70819970D01*
X183344474Y-70935918D01*
X183260792Y-70681739D01*
X182988225Y-70550842D01*
X182695358Y-70475635D01*
X182393447Y-70459009D01*
X182094093Y-70501603D01*
X181808801Y-70601778D01*
X181659208Y-70681739D01*
X181575525Y-70935920D01*
X182460000Y-71820395D01*
X182474143Y-71806253D01*
X182653748Y-71985858D01*
X182639605Y-72000000D01*
X182653748Y-72014143D01*
X182474143Y-72193748D01*
X182460000Y-72179605D01*
X182445858Y-72193748D01*
X182266253Y-72014143D01*
X182280395Y-72000000D01*
X181395920Y-71115525D01*
X181141739Y-71199208D01*
X181010842Y-71471775D01*
X180935635Y-71764642D01*
X180927355Y-71915000D01*
X180898061Y-71915000D01*
X180698102Y-71954774D01*
X180509744Y-72032795D01*
X180340226Y-72146063D01*
X180210545Y-72275744D01*
X178623804Y-70689003D01*
X178600001Y-70659999D01*
X178484276Y-70565026D01*
X178352247Y-70494454D01*
X178208986Y-70450997D01*
X178097333Y-70440000D01*
X178097322Y-70440000D01*
X178060000Y-70436324D01*
X178022678Y-70440000D01*
X177703711Y-70440000D01*
X177659774Y-70396063D01*
X177490256Y-70282795D01*
X177301898Y-70204774D01*
X177101939Y-70165000D01*
X177040938Y-70165000D01*
X177053482Y-70101939D01*
X177053482Y-69898061D01*
X177013708Y-69698102D01*
X176935687Y-69509744D01*
X176822419Y-69340226D01*
X176678256Y-69196063D01*
X176508738Y-69082795D01*
X176320380Y-69004774D01*
X176120421Y-68965000D01*
X175916543Y-68965000D01*
X175716584Y-69004774D01*
X175528226Y-69082795D01*
X175358708Y-69196063D01*
X175314771Y-69240000D01*
X174037322Y-69240000D01*
X173999999Y-69236324D01*
X173962676Y-69240000D01*
X173962667Y-69240000D01*
X173851014Y-69250997D01*
X173707753Y-69294454D01*
X173575724Y-69365026D01*
X173459999Y-69459999D01*
X173436201Y-69488997D01*
X172553160Y-70372038D01*
X172100760Y-70069754D01*
X171293642Y-69735435D01*
X170436809Y-69565000D01*
X169563191Y-69565000D01*
X168706358Y-69735435D01*
X167899240Y-70069754D01*
X167172852Y-70555111D01*
X166555111Y-71172852D01*
X166069754Y-71899240D01*
X165735435Y-72706358D01*
X165565000Y-73563191D01*
X165565000Y-74436809D01*
X165735435Y-75293642D01*
X166069754Y-76100760D01*
X166555111Y-76827148D01*
X167172852Y-77444889D01*
X167899240Y-77930246D01*
X168706358Y-78264565D01*
X169563191Y-78435000D01*
X170436809Y-78435000D01*
X171293642Y-78264565D01*
X172100760Y-77930246D01*
X172827148Y-77444889D01*
X173444889Y-76827148D01*
X173930246Y-76100760D01*
X174264565Y-75293642D01*
X174435000Y-74436809D01*
X174435000Y-73563191D01*
X174264565Y-72706358D01*
X173930246Y-71899240D01*
X173627962Y-71446840D01*
X174314802Y-70760000D01*
X175314771Y-70760000D01*
X175358708Y-70803937D01*
X175528226Y-70917205D01*
X175716584Y-70995226D01*
X175916543Y-71035000D01*
X175977544Y-71035000D01*
X175965000Y-71098061D01*
X175965000Y-71301939D01*
X176004774Y-71501898D01*
X176082795Y-71690256D01*
X176196063Y-71859774D01*
X176340226Y-72003937D01*
X176509744Y-72117205D01*
X176698102Y-72195226D01*
X176898061Y-72235000D01*
X177101939Y-72235000D01*
X177301898Y-72195226D01*
X177490256Y-72117205D01*
X177659774Y-72003937D01*
X177703711Y-71960000D01*
X177745199Y-71960000D01*
X178820199Y-73035000D01*
X178603589Y-73035000D01*
X178336011Y-73088225D01*
X178083957Y-73192629D01*
X177857114Y-73344201D01*
X177664201Y-73537114D01*
X177582091Y-73660000D01*
X177417322Y-73660000D01*
X177379999Y-73656324D01*
X177342676Y-73660000D01*
X177342667Y-73660000D01*
X177231014Y-73670997D01*
X177087753Y-73714454D01*
X176993189Y-73765000D01*
X176898061Y-73765000D01*
X176698102Y-73804774D01*
X176509744Y-73882795D01*
X176340226Y-73996063D01*
X176196063Y-74140226D01*
X176082795Y-74309744D01*
X176004774Y-74498102D01*
X175965000Y-74698061D01*
X175965000Y-74901939D01*
X176004774Y-75101898D01*
X176082689Y-75290000D01*
X174965123Y-75290000D01*
X174860816Y-75300273D01*
X174726980Y-75340872D01*
X174603637Y-75406800D01*
X174495525Y-75495525D01*
X174406800Y-75603637D01*
X174340872Y-75726980D01*
X174338473Y-75734888D01*
X173971024Y-76462269D01*
X173483124Y-77114425D01*
X172889390Y-77671951D01*
X172207868Y-78117903D01*
X171459263Y-78438733D01*
X170666313Y-78624698D01*
X169853117Y-78670142D01*
X169044395Y-78573688D01*
X168264693Y-78338261D01*
X167537731Y-77971024D01*
X166885575Y-77483124D01*
X166328049Y-76889390D01*
X165882097Y-76207868D01*
X165561267Y-75459263D01*
X165375302Y-74666313D01*
X165329858Y-73853117D01*
X165426312Y-73044393D01*
X165661738Y-72264693D01*
X166028977Y-71537729D01*
X166516876Y-70885575D01*
X167110608Y-70328051D01*
X167792133Y-69882097D01*
X168540737Y-69561267D01*
X169333685Y-69375302D01*
X170146882Y-69329858D01*
X170955607Y-69426312D01*
X171751318Y-69666573D01*
X171773684Y-69676587D01*
X171910029Y-69707739D01*
X172049829Y-69711692D01*
X172187717Y-69688296D01*
X172318390Y-69638449D01*
X172436827Y-69564066D01*
X172538478Y-69468007D01*
X172599148Y-69382540D01*
X175769359Y-63834671D01*
X177727956Y-63834671D01*
X177906243Y-64034233D01*
X179114457Y-63710492D01*
X178790717Y-62502278D01*
X178528748Y-62447658D01*
X178279105Y-62618260D01*
X178067541Y-62834286D01*
X177902186Y-63087436D01*
X177789396Y-63367981D01*
X177733505Y-63665139D01*
X177727956Y-63834671D01*
X175769359Y-63834671D01*
X176568292Y-62436538D01*
X179036062Y-62436538D01*
X179359803Y-63644752D01*
X180568017Y-63321012D01*
X180622637Y-63059043D01*
X180452035Y-62809400D01*
X180236009Y-62597836D01*
X179982859Y-62432481D01*
X179702314Y-62319691D01*
X179405156Y-62263800D01*
X179235624Y-62258251D01*
X179036062Y-62436538D01*
X176568292Y-62436538D01*
X177000465Y-61680236D01*
X177004774Y-61701898D01*
X177004774Y-61701898D01*
G37*
X177004774Y-61701898D02*
X177082795Y-61890256D01*
X177196063Y-62059774D01*
X177340226Y-62203937D01*
X177509744Y-62317205D01*
X177698102Y-62395226D01*
X177898061Y-62435000D01*
X178101939Y-62435000D01*
X178301898Y-62395226D01*
X178490256Y-62317205D01*
X178659774Y-62203937D01*
X178703711Y-62160000D01*
X188494929Y-62160000D01*
X187181541Y-62918285D01*
X187079867Y-62991144D01*
X186994360Y-63082438D01*
X186928308Y-63188660D01*
X186884247Y-63305727D01*
X186863871Y-63429140D01*
X186867964Y-63554157D01*
X186896367Y-63675973D01*
X186947990Y-63789908D01*
X187210648Y-64244845D01*
X186215494Y-65240000D01*
X185037333Y-65240000D01*
X185000000Y-65236323D01*
X184962667Y-65240000D01*
X179696168Y-65240000D01*
X179650133Y-65190849D01*
X179548459Y-65117990D01*
X179481189Y-65079152D01*
X179204260Y-64045643D01*
X179255859Y-63994044D01*
X179151913Y-63890098D01*
X179425543Y-63890098D01*
X179749283Y-65098312D01*
X180011252Y-65152932D01*
X180260895Y-64982330D01*
X180472459Y-64766304D01*
X180637814Y-64513154D01*
X180750604Y-64232609D01*
X180806495Y-63935451D01*
X180812044Y-63765919D01*
X180633757Y-63566357D01*
X179425543Y-63890098D01*
X179151913Y-63890098D01*
X179076251Y-63814436D01*
X178845045Y-64045642D01*
X178056884Y-64256829D01*
X177989613Y-64217990D01*
X177875678Y-64166367D01*
X177753862Y-64137964D01*
X177628845Y-64133871D01*
X177505432Y-64154247D01*
X177388365Y-64198308D01*
X177282143Y-64264360D01*
X177190849Y-64349867D01*
X177117990Y-64451541D01*
X176217990Y-66010387D01*
X176166367Y-66124322D01*
X176137964Y-66246138D01*
X176133871Y-66371155D01*
X176154247Y-66494568D01*
X176198308Y-66611635D01*
X176264360Y-66717857D01*
X176349867Y-66809151D01*
X176451541Y-66882010D01*
X178010387Y-67782010D01*
X178124322Y-67833633D01*
X178246138Y-67862036D01*
X178371155Y-67866129D01*
X178494568Y-67845753D01*
X178611635Y-67801692D01*
X178717857Y-67735640D01*
X178809151Y-67650133D01*
X178882010Y-67548459D01*
X179337227Y-66760000D01*
X184240001Y-66760000D01*
X184240000Y-70461928D01*
X184100000Y-70461928D01*
X183975518Y-70474188D01*
X183855820Y-70510498D01*
X183745506Y-70569463D01*
X183648815Y-70648815D01*
X183569463Y-70745506D01*
X183510498Y-70855820D01*
X183507187Y-70866735D01*
X183460422Y-70819970D01*
X183344474Y-70935918D01*
X183260792Y-70681739D01*
X182988225Y-70550842D01*
X182695358Y-70475635D01*
X182393447Y-70459009D01*
X182094093Y-70501603D01*
X181808801Y-70601778D01*
X181659208Y-70681739D01*
X181575525Y-70935920D01*
X182460000Y-71820395D01*
X182474143Y-71806253D01*
X182653748Y-71985858D01*
X182639605Y-72000000D01*
X182653748Y-72014143D01*
X182474143Y-72193748D01*
X182460000Y-72179605D01*
X182445858Y-72193748D01*
X182266253Y-72014143D01*
X182280395Y-72000000D01*
X181395920Y-71115525D01*
X181141739Y-71199208D01*
X181010842Y-71471775D01*
X180935635Y-71764642D01*
X180927355Y-71915000D01*
X180898061Y-71915000D01*
X180698102Y-71954774D01*
X180509744Y-72032795D01*
X180340226Y-72146063D01*
X180210545Y-72275744D01*
X178623804Y-70689003D01*
X178600001Y-70659999D01*
X178484276Y-70565026D01*
X178352247Y-70494454D01*
X178208986Y-70450997D01*
X178097333Y-70440000D01*
X178097322Y-70440000D01*
X178060000Y-70436324D01*
X178022678Y-70440000D01*
X177703711Y-70440000D01*
X177659774Y-70396063D01*
X177490256Y-70282795D01*
X177301898Y-70204774D01*
X177101939Y-70165000D01*
X177040938Y-70165000D01*
X177053482Y-70101939D01*
X177053482Y-69898061D01*
X177013708Y-69698102D01*
X176935687Y-69509744D01*
X176822419Y-69340226D01*
X176678256Y-69196063D01*
X176508738Y-69082795D01*
X176320380Y-69004774D01*
X176120421Y-68965000D01*
X175916543Y-68965000D01*
X175716584Y-69004774D01*
X175528226Y-69082795D01*
X175358708Y-69196063D01*
X175314771Y-69240000D01*
X174037322Y-69240000D01*
X173999999Y-69236324D01*
X173962676Y-69240000D01*
X173962667Y-69240000D01*
X173851014Y-69250997D01*
X173707753Y-69294454D01*
X173575724Y-69365026D01*
X173459999Y-69459999D01*
X173436201Y-69488997D01*
X172553160Y-70372038D01*
X172100760Y-70069754D01*
X171293642Y-69735435D01*
X170436809Y-69565000D01*
X169563191Y-69565000D01*
X168706358Y-69735435D01*
X167899240Y-70069754D01*
X167172852Y-70555111D01*
X166555111Y-71172852D01*
X166069754Y-71899240D01*
X165735435Y-72706358D01*
X165565000Y-73563191D01*
X165565000Y-74436809D01*
X165735435Y-75293642D01*
X166069754Y-76100760D01*
X166555111Y-76827148D01*
X167172852Y-77444889D01*
X167899240Y-77930246D01*
X168706358Y-78264565D01*
X169563191Y-78435000D01*
X170436809Y-78435000D01*
X171293642Y-78264565D01*
X172100760Y-77930246D01*
X172827148Y-77444889D01*
X173444889Y-76827148D01*
X173930246Y-76100760D01*
X174264565Y-75293642D01*
X174435000Y-74436809D01*
X174435000Y-73563191D01*
X174264565Y-72706358D01*
X173930246Y-71899240D01*
X173627962Y-71446840D01*
X174314802Y-70760000D01*
X175314771Y-70760000D01*
X175358708Y-70803937D01*
X175528226Y-70917205D01*
X175716584Y-70995226D01*
X175916543Y-71035000D01*
X175977544Y-71035000D01*
X175965000Y-71098061D01*
X175965000Y-71301939D01*
X176004774Y-71501898D01*
X176082795Y-71690256D01*
X176196063Y-71859774D01*
X176340226Y-72003937D01*
X176509744Y-72117205D01*
X176698102Y-72195226D01*
X176898061Y-72235000D01*
X177101939Y-72235000D01*
X177301898Y-72195226D01*
X177490256Y-72117205D01*
X177659774Y-72003937D01*
X177703711Y-71960000D01*
X177745199Y-71960000D01*
X178820199Y-73035000D01*
X178603589Y-73035000D01*
X178336011Y-73088225D01*
X178083957Y-73192629D01*
X177857114Y-73344201D01*
X177664201Y-73537114D01*
X177582091Y-73660000D01*
X177417322Y-73660000D01*
X177379999Y-73656324D01*
X177342676Y-73660000D01*
X177342667Y-73660000D01*
X177231014Y-73670997D01*
X177087753Y-73714454D01*
X176993189Y-73765000D01*
X176898061Y-73765000D01*
X176698102Y-73804774D01*
X176509744Y-73882795D01*
X176340226Y-73996063D01*
X176196063Y-74140226D01*
X176082795Y-74309744D01*
X176004774Y-74498102D01*
X175965000Y-74698061D01*
X175965000Y-74901939D01*
X176004774Y-75101898D01*
X176082689Y-75290000D01*
X174965123Y-75290000D01*
X174860816Y-75300273D01*
X174726980Y-75340872D01*
X174603637Y-75406800D01*
X174495525Y-75495525D01*
X174406800Y-75603637D01*
X174340872Y-75726980D01*
X174338473Y-75734888D01*
X173971024Y-76462269D01*
X173483124Y-77114425D01*
X172889390Y-77671951D01*
X172207868Y-78117903D01*
X171459263Y-78438733D01*
X170666313Y-78624698D01*
X169853117Y-78670142D01*
X169044395Y-78573688D01*
X168264693Y-78338261D01*
X167537731Y-77971024D01*
X166885575Y-77483124D01*
X166328049Y-76889390D01*
X165882097Y-76207868D01*
X165561267Y-75459263D01*
X165375302Y-74666313D01*
X165329858Y-73853117D01*
X165426312Y-73044393D01*
X165661738Y-72264693D01*
X166028977Y-71537729D01*
X166516876Y-70885575D01*
X167110608Y-70328051D01*
X167792133Y-69882097D01*
X168540737Y-69561267D01*
X169333685Y-69375302D01*
X170146882Y-69329858D01*
X170955607Y-69426312D01*
X171751318Y-69666573D01*
X171773684Y-69676587D01*
X171910029Y-69707739D01*
X172049829Y-69711692D01*
X172187717Y-69688296D01*
X172318390Y-69638449D01*
X172436827Y-69564066D01*
X172538478Y-69468007D01*
X172599148Y-69382540D01*
X175769359Y-63834671D01*
X177727956Y-63834671D01*
X177906243Y-64034233D01*
X179114457Y-63710492D01*
X178790717Y-62502278D01*
X178528748Y-62447658D01*
X178279105Y-62618260D01*
X178067541Y-62834286D01*
X177902186Y-63087436D01*
X177789396Y-63367981D01*
X177733505Y-63665139D01*
X177727956Y-63834671D01*
X175769359Y-63834671D01*
X176568292Y-62436538D01*
X179036062Y-62436538D01*
X179359803Y-63644752D01*
X180568017Y-63321012D01*
X180622637Y-63059043D01*
X180452035Y-62809400D01*
X180236009Y-62597836D01*
X179982859Y-62432481D01*
X179702314Y-62319691D01*
X179405156Y-62263800D01*
X179235624Y-62258251D01*
X179036062Y-62436538D01*
X176568292Y-62436538D01*
X177000465Y-61680236D01*
X177004774Y-61701898D01*
G04 #@! TD*
M02*
